<svg xmlns="http://www.w3.org/2000/svg" xmlns:xlink="http://www.w3.org/1999/xlink" width="729" height="527" viewBox="0 0 729 527">
  <defs>
    <clipPath id="clip-path">
      <rect id="Retângulo_262" data-name="Retângulo 262" width="729" height="527" transform="translate(1069 345)" fill="#fff" stroke="#707070" stroke-width="1"/>
    </clipPath>
    <clipPath id="clip-path-2">
      <rect id="Retângulo_14" data-name="Retângulo 14" width="801" height="580.008" fill="none"/>
    </clipPath>
    <clipPath id="clip-path-3">
      <rect id="Retângulo_11" data-name="Retângulo 11" width="801" height="580.008" fill="none" stroke="#707070" stroke-width="3"/>
    </clipPath>
    <clipPath id="clip-path-4">
      <rect id="Retângulo_3" data-name="Retângulo 3" width="203.444" height="185.312" fill="none" stroke="#707070" stroke-width="3"/>
    </clipPath>
    <clipPath id="clip-path-5">
      <rect id="Retângulo_4" data-name="Retângulo 4" width="196.78" height="137.391" fill="none" stroke="#707070" stroke-width="3"/>
    </clipPath>
    <clipPath id="clip-path-6">
      <rect id="Retângulo_5" data-name="Retângulo 5" width="453.954" height="241.542" fill="none" stroke="#707070" stroke-width="3"/>
    </clipPath>
    <clipPath id="clip-path-7">
      <rect id="Retângulo_6" data-name="Retângulo 6" width="178.981" height="241.557" fill="none" stroke="#707070" stroke-width="3"/>
    </clipPath>
    <clipPath id="clip-path-8">
      <rect id="Retângulo_7" data-name="Retângulo 7" width="242.765" height="180.367" fill="none" stroke="#707070" stroke-width="3"/>
    </clipPath>
    <clipPath id="clip-path-9">
      <rect id="Retângulo_8" data-name="Retângulo 8" width="301.428" height="271.207" fill="none" stroke="#707070" stroke-width="3"/>
    </clipPath>
    <clipPath id="clip-path-10">
      <rect id="Retângulo_9" data-name="Retângulo 9" width="0.051" height="0.043" fill="none" stroke="#707070" stroke-width="3"/>
    </clipPath>
    <clipPath id="clip-path-11">
      <rect id="Retângulo_10" data-name="Retângulo 10" width="214.1" height="134.344" fill="none" stroke="#707070" stroke-width="3"/>
    </clipPath>
  </defs>
  <g id="Grupo_de_máscara_25" data-name="Grupo de máscara 25" transform="translate(-1069 -345)" clip-path="url(#clip-path)">
    <g id="Grupo_42" data-name="Grupo 42" transform="translate(1076 316.712)">
      <g id="Grupo_41" data-name="Grupo 41" clip-path="url(#clip-path-2)">
        <g id="Grupo_36" data-name="Grupo 36">
          <g id="Grupo_35" data-name="Grupo 35" clip-path="url(#clip-path-3)">
            <path id="Caminho_40" data-name="Caminho 40" d="M219.2,101.387c-2.022,1.9-3.371,4.608-4.727,4.608s-2.7-.683-4.053.674,0,2.022-2.7,4.053-2.031,3.371-4.053,3.371-2.031-.674-2.7,1.357a11.105,11.105,0,0,1-2.022,4.053c-.674.674,0,2.7-2.7,4.727s-3.371,2.022-4.727,4.727-2.7,4.727-3.379,6.75-2.022,4.053-1.348,5.4,4.053,2.031,4.053,5.41-.674,4.053,1.348,4.053,2.031-.683,3.379-.683,4.053,3.379,4.053,4.727a19.074,19.074,0,0,1-.674,5.41c-.674,2.7-.674,8.1,1.348,9.455.2.137.384.273.563.418a11.652,11.652,0,0,1-3.26,3.635c-2.031,1.348-2.7-1.357-6.758-.674s-2.7,2.022-4.053,4.727-3.379,2.022-6.75,3.371-6.084,3.379-6.758,4.727-3.379-2.022-4.727-3.371-2.7.674-2.7,2.022-1.357,3.379-3.379,4.727-2.7,0-4.727-.674-1.357,0-3.379.674-4.727-.674-6.758-2.7-2.7,0-3.371,1.348-2.7,2.022-5.41,2.022-5.4,2.031-6.076,2.7-4.727,2.022-8.106,5.4-1.348,2.031-3.371,2.7a2.364,2.364,0,0,1-3.379-2.031c0-1.348-2.7-2.022-4.727-1.348s-2.7,2.7-4.053,5.384,0,8.123,0,10.146-.674,4.053-3.379,4.727-3.379,3.379-4.053,4.736,2.031,2.7,2.7,6.076-2.031,3.379-2.534,5.512-2.867,1.237-6.323,0-1.954-4.164-3.976-3.49-.674.674-4.053,1.357-1.348-1.357-4.053-2.031-3.379-3.379-4.727-4.053-1.348,7.432-2.7,8.106-1.348-.674-3.371-4.053-5.4,0-7.432,1.348-2.7,2.031-6.076,2.031-2.031,1.348-4.053,2.7-2.031,0-4.727.674-1.357,2.7-4.036,3.84-2.722-1.818-5.418-1.818S34.718,242,34.718,242c-.145-.777-.23-1.271-.23-1.271s-3.379-10.129-3.379-11.477.674-7.646,0-9.233-2.7-4.275-3.379-4.275-.674-2.7-2.7-4.727-7.774-17.228-7.774-18.576-1.348-3.379,0-5.069,2.031-3.038,2.031-6.417-1.348-4.727-1.348-6.076,3.371,2.7,2.7-3.379-1.348-4.727-1.348-7.424-1.348,0,0-4.053.674-2.7,1.348-6.084-1.348-1.348,2.7-4.727,6.75-8.106,8.106-10.129a6.886,6.886,0,0,1,5.4-3.379c2.022,0,4.727,2.7,8.106-2.022s4.727-3.379,5.4-6.084,2.022-3.371,2.022-6.75,0-1.348,4.727-4.727,8.106-2.031,10.811-5.4,4.727-4.727,5.4-6.758,1.348-2.022,1.348-4.727,1.348-2.7,2.7-4.727,1.348-2.022,4.053-3.379,4.053-2.022,7.424-2.022h5.529c3.251,0,2.893,1.348,7.125,0s6.263-2.031,6.263-4.053-.683-2.031,1.348-3.379,0-1.348,2.022-1.348,2.543.674,6,0S124.647,78.3,126,78.979s3.371,1.348,4.727,2.022-2.031,2.7,2.7,1.348a43.431,43.431,0,0,0,6.084-2.022s1.348,3.379,3.371,2.022,4.727-6.076,6.758-6.076,4.053.674,4.727,2.022,1.348,2.031,2.7.683,1.374.674,2.372-2.7-3.729-3.379,3.029-4.727,4.727-2.7,7.424-4.727,2.662,0,4.036,0,2.048-2.7,2.722-4.727.674-1.348,2.7-1.348,2.022,2.022,3.371,2.022,2.287-.9,3.848-2.133,3.584.111,3.584-1.92.674-2.022.674-2.022,3.379,1.348,3.379,4.053-1.348,4.045-1.348,6.076,1.348,6.34,1.348,7.893v5.751c0,1.886-1.348,3.686,0,4.139s.674,2.475,2.7,1.126,5.41-4.053,6.758-4.053h3.379c1.348,0,2.7-1.348,4.727-1.348s5.4,4.053,6.076,5.4,1.348,6.758,1.348,8.106S221.233,99.484,219.2,101.387Z" transform="translate(-2.444 -8.316)" fill="none" stroke="#fff" stroke-miterlimit="10" stroke-width="3"/>
            <path id="Caminho_41" data-name="Caminho 41" d="M234.133,194c-2.031,1.357-4.736,4.053-4.736,6.084s-1.348,9.455-2.7,10.129-2.031,5.4-2.031,7.432-3.371,10.8-5.4,10.8-4.727,2.7-4.727,4.053c0,.512-.99,1.229-2.321,1.92h-.009a19.945,19.945,0,0,1-6.451,2.133c-2.022,0-5.4.674-6.076,2.7s-2.031,6.084-4.727,6.084-16.213-.674-18.909.674-9.463,1.348-10.137,3.379-2.7,2.7-2.022,4.727-3.379,1.348-4.053,2.7-1.476,1.2-1.075,4.651-2.3,3.456-.947,6.161,2.022,2.022,4.727,3.379,2.022,3.371,5.4,4.727,2.7,6.076-2.031,6.75-8.1.674-12.834,2.7-8.1,4.053-8.772,6.75.674,8.106-1.357,9.455-4.727,8.781-8.781,8.106-2.7-2.7-5.4-2.022-4.053.674-6.076-.674a12.231,12.231,0,0,0-8.78-1.357c-3.379.674-5.4,1.357-7.432,1.357s-4.727-.683-3.379,2.022,4.053,4.053,2.7,5.4-.674,5.4-3.379,6.084-3.379,5.4-7.424,2.022-6.716-.29-7.748,1.2c-.751,1.1-1.323,2.833-2.364,3.157a1.533,1.533,0,0,1-1.374-.307c-2.031-1.348-5.4-1.348-6.758-4.727s-3.371-7.432-6.076-7.432-2.7,4.053-5.4,2.031-2.7-4.727-4.727-4.053-2.7-1.357-6.084-2.7A30.5,30.5,0,0,0,46,307.987c.017-.316.034-.606.034-.853,0-4.053-4.727-8.78-4.727-10.129s3.379-8.78,1.348-12.16-2.7-13.508-3.371-16.2c-.478-1.911-1.126-5.325-1.459-7.176,0,0,3.481-3.635,6.186-3.635s2.739,2.961,5.418,1.818,1.331-3.166,4.036-3.84,2.7.674,4.727-.674.674-2.7,4.053-2.7,4.053-.674,6.076-2.031,5.4-4.727,7.432-1.348,2.022,4.727,3.371,4.053,1.357-8.781,2.7-8.106,2.031,3.379,4.727,4.053.674,2.7,4.053,2.031,2.022-.683,4.053-1.357.521,2.253,3.976,3.49,5.811,2.133,6.323,0,3.208-2.133,2.534-5.512-3.379-4.727-2.7-6.076,1.348-4.053,4.053-4.736,3.379-2.7,3.379-4.727-1.348-7.466,0-10.146,2.022-4.71,4.053-5.384,4.727,0,4.727,1.348a2.364,2.364,0,0,0,3.379,2.031c2.022-.674,0,.674,3.371-2.7s7.432-4.727,8.106-5.4,3.379-2.7,6.076-2.7,4.736-.674,5.41-2.022,1.348-3.379,3.371-1.348,4.727,3.371,6.758,2.7,1.348-1.348,3.379-.674,2.7,2.022,4.727.674,3.379-3.379,3.379-4.727,1.348-3.379,2.7-2.022,4.053,4.727,4.727,3.371,3.379-3.371,6.758-4.727,5.4-.674,6.75-3.371,0-4.053,4.053-4.727,4.727,2.022,6.758.674a11.652,11.652,0,0,0,3.26-3.635c1.63,1.314,2.543,2.961,6.195,2.961h6.75c5.4,0,1.126.956,6.306-.2s5.18.87,7.2-1.835a4.794,4.794,0,0,0,.563-.93S236.155,192.655,234.133,194Z" transform="translate(-5.548 -27.778)" fill="none" stroke="#fff" stroke-miterlimit="10" stroke-width="3"/>
            <path id="Caminho_42" data-name="Caminho 42" d="M597.77,412.61c-.1,1.468.094,3.055-.6,4.1-1.357,2.022-2.7,5.4-5.41,6.75s-6.075,2.7-6.075,5.4,0,3.379-3.379,4.736-6.75,5.4-4.053,8.781,5.41,6.076,2.031,8.1-8.106,10.811-9.455,14.865-4.053,4.727-6.758,6.076-6.075,4.053-13.508,2.022-8.106-2.7-10.8-2.022-3.84,3.481-5.973,2.756-2.133-2.082-5.512-2.082-6.75,2.031-4.727,4.053,2.031,2.7-.674,5.4-1.348,6.084-4.053,7.432-4.727,4.053-8.106,4.053-8.78,1.348-11.477,1.348-4.181-.674-6.144,0-7.364,7.432-7.364,10.811,0,4.727-3.379,4.045-8.78-1.348-9.455-1.348-.674-3.379.674-6.076,3.379-2.705,3.379-6.758-4.053-3.371-4.727-6.076-3.379-5.4,0-6.758,4.053-2.022,2.7-5.4-6.75-5.4-8.78-4.727-7.424,1.348-7.424,4.053-2.031,5.4-3.379,5.4-2.031-2.022-5.4-2.7-3.379.674-8.106,0-9.455-3.379-10.129-2.031,0,4.053-2.031,4.053-7.424-3.3-7.765-1.314-1.69,7.39,1.69,8.072a26.4,26.4,0,0,1,8.78,4.053c2.022,1.348,4.727,1.348,2.7,4.727s.683,6.75-1.348,9.455-2.022,1.348-5.4,2.7-4.053,2.7-4.727,5.4-5.649,3.378-8.9,0-4.864-.154-5.751,2.286,1.143,7.85,4.522,8.524.674,4.727-.683,6.75-5.4,15.539-8.781,15.539-4.045-2.031-6.75-4.727-8.78-10.13-11.485-12.16-8.1-3.38-10.129-2.023-5.4,2.023-6.076,4.727-2.7,2.022-2.7,6.076-4.727,3.38-4.727,0-.674-6.75-4.053-8.78-6.75-2.706-7.424-.675-2.031,7.432-3.379,6.076-2.7-3.37-4.727-2.022-4.727-2.031-5.4-4.053a39.2,39.2,0,0,0-3.379-6.076s2.7,0,4.053-3.379.674-4.053,2.022-8.106,6.758-8.106,0-8.106-12.16,4.727-13.508,2.031-1.348-4.727-3.379-6.084,0-2.022,0-4.053-4.727-3.371-6.75-2.022-6.076,3.379-6.758,4.727-4.053,3.379-5.4,0-2.022-4.053-5.4-6.75-4.053-4.053-7.432-4.053-10.129,0-4.727-4.053,6.084-6.758,6.084-6.758-6.084-.674-8.106.674-2.7,3.379-4.727,2.7-3.379-4.053-4.053-.674a33.186,33.186,0,0,1-2.7,8.781c-1.348,2.7-3.379,6.076-5.4,6.076s1.348.674-4.727,1.348-8.781,2.031-10.8-.674,2.022-4.727-3.379-5.4-4.727,1.348-8.106,1.348c-2.2,0-2.389-.572-3.379-.034V482.9c0-2.031-1.348-2.7-1.348-1.357s-1.348,2.7-4.053,4.727-2.7,5.41-4.727,6.084-2.022,0-4.053-1.357-1.348-.674-6.75-1.348-3.379-3.379-5.41-2.705-5.4-.674-4.727-2.022-.674-4.053-2.022-4.053-2.031,2.031-4.625,4.668-.777,3.439-.1,8.166-2.031,2.7-4.941,4.053-12.62.674-16,0-2.022-5.4-4.053-7.432-6.076-.674-6.076-2.7-.674-3.379-4.053-3.379a3.309,3.309,0,0,1-3.379-3.379c-3.379-2.7-.674-1.348-2.022-4.053s-1.357-3.379,0-6.75,1.348-3.379,3.379-4.727,2.7-5.41,3.371-6.758-.674-4.053,0-5.4-2.7-4.727-4.053-6.758-2.022-3.371-1.348-4.727,2.7-2.7,4.053-3.371,0-4.053-1.348-5.41,2.022-1.348,3.371-3.371,1.357-2.031,3.379-2.031,2.031-3.379,1.348-5.4.683-2.7,2.7-2.7,2.7-2.022,4.053-4.053,1.348-3.371,4.053-5.4,1.348-2.022.674-4.053-1.348-2.7-1.348-4.053-3.379-1.348-6.758-4.045-6.076,0-8.78,0-4.727,3.371-7.424,4.727-2.7-2.031-3.379-3.379-4.727,0-6.076,1.348-2.031,1.348-4.053,1.348,0-4.727,2.022-6.75,3.379-7.432,3.379-10.129,1.348-2.031,4.053-3.379,3.371-3.379,5.4-4.727-.674-2.7,0-4.727,3.379-1.348,4.727,0,6.75-2.031,10.8-2.031,2.7-2.7,4.053-4.053c0,0,5.743,4.395,7.774,2.372s1.348-6.084,2.7-7.432,2.7-2.031,4.727-4.727,4.727-4.727,7.432-4.727,4.053-5.4,3.379-6.758,2.27-1.348,5.188,0,2.91,2.7,4.941,4.053,4.505-.512,4.275,3.123,5.854,8.362,7.885,5.657,3.371-2.022,4.045-5.4,1.195-6.024,1.613-8.414,1.092-.367,1.766-3.746,0-1.877,2.364-4.651,3.2-2.833,3.456-5.5.939-2.005,1.613-4.7-1.348-4.053,2.022-4.053,2.3,2.568,5.879,2.3,2.227.41,4.258-.947,3.371-.674,4.053.674,1.348,4.727,3.371,4.727,16.213,4.736,14.865,8.106c-1.229,3.063-5.171,7.2-5.674,7.714.29-.145.555,1.485-.742,3.431-1.357,2.03.674.673-.683,6.083s-2.022,4.053-2.022,6.75-.674,2.031,3.379,3.38,5.4,2.7,3.379,4.053-5.41,4.726-4.736,6.749,5.41,1.358,6.084,1.358,6.75,2.7,6.75,4.726c2.031,2.022,6.084-1.357,6.084-2.7s5.4-4.053,10.129-6.075,6.076-6.759,8.106-10.812.674-8.106,3.379-9.454c2.116-1.059,5.077-3.371,4.275-4.967a6.269,6.269,0,0,1,5.094,0c2.449,1.254,5.06-.717,7.134-2.432a7.087,7.087,0,0,1,9.42,0c3.456,3.012,10.88,7.065,13.585,6.383s4.727-5.4,6.076-5.4.836,4.207,3.8,5.478,7.944-2.79,7.816-4.13,3.251-6.75,5.273-8.772,3.311,1.306,6.724-1.041,2.731-5.043,5.436-3.686,3.371,2.7,5.4.674,4.727-6.084,4.727-9.455-1.348-7.415,0-7.765,1.365-.333,4.395,0,4.847-.367,5.29-2.381,5.171-10.794,7.2-7.415,1.562,3.345,3.149,7.415,5.282,6.767,2.756,7.441-7.262.674-4.557,4.727,2.048,2.645,5.418,4.028A7.464,7.464,0,0,1,421.9,333.1c1.2,2.031,1.749,4.4,1.348,5.6-.674,2.022-1.766,6.792.128,10.487s1.9,5.043,1.229,7.748,9.455,11.485,14.182,12.16,10.129,1.348,9.455,3.371-1.348,4.053-3.379,5.41-4.053,2.022-3.379,4.727,4.173,2.184,6.818,1.766,4.958-2.961,6.161.333,1.493,4.881,0,6.792.154,7.3,1.015,8.661.2,4.053,2.893,4.736,2.807,2.022,7.816,0,3.379-1.365,6.9-4.736,2.841-4.045,6.221-3.371,3.362,1.331,5.734,3.371,5.069,4.053,7.774,2.7,3.379-3.379,2.7-6.75-1.536-4.889.247-8.524,2.347-5.077,3.072-6.716.768-1.058,3.456,0,9.438,4.429,10.112,7.808,6.758,6.076,9.455,7.432,4.727,1.348,8.781,2.7,6.758,1.357,7.432,3.379-.358,2.816,3.533,3.772,4.83-.956,9.429,0,5.273.956,6.622,2.987-.674,3.371,4.727,5.4,11.34,2.7,11.409,0a17.1,17.1,0,0,1,3.456-10.137c2.7-3.371,2.927-1.365,5.512-4.053s3.268-1.348,5.291,2.031S596.687,412.908,597.77,412.61Z" transform="translate(-21.097 -44.818)" fill="none" stroke="#fff" stroke-miterlimit="10" stroke-width="3"/>
            <path id="Caminho_43" data-name="Caminho 43" d="M211.66,509.887c1.348,4.727,3.379,6.75,2.022,9.455s-1.348,3.379,2.031,6.75,1.348,2.7,2.7,6.084,4.053,5.4,0,6.75-5.4,2.705-8.1,1.357.674-3.379-4.053-4.053-3.379,0-6.758,2.022-6.076,1.348-7.432,0a7.661,7.661,0,0,0-5.4-2.022c-2.022,0-4.053-1.357-4.727,2.022s.674,4.727,1.357,7.432,4.045.674,0,6.75-4.736,6.084-4.053,8.781-1.357,4.053-2.7,6.084-1.348-1.357-3.379-4.053-2.022,2.022-4.727,2.022-1.348-3.379-4.727-3.379-2.7,4.727-4.053,3.379-6.75-6.076-8.106-7.424-2.022-4.053-6.75,0-4.053,4.727-5.4,7.424.674,1.348-2.7,0-2.7-4.727-7.432-2.7-4.727,1.348-6.75,3.371-.981-.785-4.881,1.971-4.676,2.645-5.973,0,4.1.06-1.306-2.645-6.076-.674-6.75-5.4,0-5.4,1.348-7.432,2.022-.674,3.379-3.371-2.031-5.41-3.379-6.084-2.022-4.727,0-5.4a10.559,10.559,0,0,0,5.4-5.4c.674-2.031.674-6.084-.674-6.084s-4.053,3.379-6.076,4.727-8.781-.674-8.106-4.727-1.348-10.129-2.7-12.151a19.041,19.041,0,0,1-3.371-7.432c-.683-3.379,4.045-9.455,0-9.455s-8.106,4.727-9.463,3.379-2.022-3.379-2.022-6.084,2.7-10.8,1.348-15.53-3.371-10.811-3.371-16.213-2.031-9.455-2.031-12.834,2.7-5.4,0-8.78-5.4-10.8-8.106-12.825-4.727-14.19-4.727-15.539-1.348-4.053-1.348-6.75.674-4.053-.674-8.106-4.053-10.811-4.053-14.182,2.022-10.137,0-10.811-4.053-4.053-4.053-5.4-3.379-9.455-4.053-12.16-3.379-7.424-3.379-8.781c0-1.263,2.97-13.226,3.345-18.056a30.5,30.5,0,0,1,8.473,1.51c3.379,1.348,4.053,3.379,6.084,2.7s2.022,2.022,4.727,4.053,2.7-2.031,5.4-2.031,4.727,4.053,6.076,7.432,4.727,3.379,6.758,4.727a1.533,1.533,0,0,0,1.374.307,10.418,10.418,0,0,0,4.369,1.382c2.022,0,5.4,4.053,4.053,4.727s-8.106,2.7-8.106,4.053,2.7,2.022,2.022,4.727-1.348,8.78.674,8.78H95.44a54.93,54.93,0,0,1,10.18.674c4.053.674,8.106-.674,8.106-1.348s-.674-2.7.674-4.053,4.727-3.379,7.432-3.379,4.727,0,6.076-.674,2.7.674,3.379,1.348,4.727,2.7,5.4,1.348,3.473-3.891,4.437-5.325,3.669-2.1,5.017-.751-2.7,3.379-2.022,4.727,2.022,1.348,4.053.674,3.371,2.031,4.727.674,4.053-3.371,6.076-3.371,0,.674,2.031,3.371,4.727,3.379,3.371,4.727,0,4.053-4.053,4.053-9.455,3.379-10.8,2.031-4.053-2.031-4.727,0,2.022,3.379,0,4.727-2.7,3.379-5.4,4.727-4.053.674-4.053,3.379-1.348,8.106-3.379,10.129-4.053,6.75-2.022,6.75,2.7,0,4.053-1.348,5.4-2.7,6.076-1.348.674,4.727,3.379,3.379,4.727-4.727,7.424-4.727,5.4-2.7,8.78,0,6.758,2.7,6.758,4.045.674,2.031,1.348,4.053,2.031,2.031-.674,4.053-2.7,3.379-4.053,5.4-2.022,4.053-4.053,4.053-3.379.683-2.7,2.7.683,5.4-1.348,5.4-2.022,0-3.379,2.031-4.727,2.022-3.371,3.371,2.7,4.727,1.348,5.41-3.379,2.022-4.053,3.371,0,2.7,1.348,4.727,4.727,5.41,4.053,6.758.674,4.053,0,5.4-1.348,5.4-3.371,6.758-2.031,1.348-3.379,4.727-1.357,4.053,0,6.75-1.357,1.348,2.022,4.053a3.309,3.309,0,0,0,3.379,3.379c3.379,0,4.053,1.348,4.053,3.379s4.053.674,6.076,2.7.674,6.758,4.053,7.432,13.09,1.348,16,0,5.615.674,4.941-4.053-2.492-5.529.1-8.166,3.277-4.668,4.625-4.668,2.7,2.705,2.022,4.053,2.7,2.705,4.727,2.022,0,2.031,5.41,2.705,4.727,0,6.75,1.348,2.031,2.031,4.053,1.357,2.022-4.053,4.727-6.084,4.053-3.371,4.053-4.727,1.348-.674,1.348,1.357v8.064a20.721,20.721,0,0,0-2.7,2.065c-4.053,3.379-5.41,3.379-5.41,6.75S210.311,505.16,211.66,509.887Z" transform="translate(-6.379 -48.172)" fill="none" stroke="#fff" stroke-miterlimit="10" stroke-width="3"/>
            <path id="Caminho_44" data-name="Caminho 44" d="M484.967,201.275c0,2.7,0,4.727-1.348,6.758s-.683,3.379-4.053,5.4-4.053,4.053-4.053,5.4-1.357,6.758-1.357,11.485-3.371,8.106-6.75,11.477,0,4.736-.674,8.106-1.357,2.7-1.357,6.758a44.663,44.663,0,0,1-.674,9.455c-.674,4.053,3.379,6.076,4.727,8.78s.683,4.727-.3,7.338-5.1,3.464-8.482,2.79a5.026,5.026,0,0,0-5.751,3.4c-.341,1.382-1,5.376-.256,7.739s-.068,6.417-3.447,7.765-4.727,1.357-7.816,2.679-7.04,3.208-7.04,3.208a7.464,7.464,0,0,0-3.362-3.208c-3.371-1.382-2.714.026-5.418-4.028s2.022-4.053,4.557-4.727-1.178-3.379-2.756-7.441-1.126-4.045-3.149-7.415-6.758,5.4-7.2,7.415-2.253,2.714-5.29,2.381-3.046-.341-4.395,0,0,4.386,0,7.765-2.7,7.424-4.727,9.455-2.7.674-5.4-.674-2.031,1.348-5.436,3.686-4.7-.99-6.724,1.041-5.4,7.424-5.273,8.772-4.855,5.41-7.816,4.13-2.44-5.478-3.8-5.478-3.379,4.727-6.076,5.4-10.129-3.371-13.585-6.383a7.087,7.087,0,0,0-9.42,0c-2.074,1.715-4.685,3.686-7.134,2.432a6.269,6.269,0,0,0-5.094,0,2.52,2.52,0,0,0-1.579-1.109c-4.053-1.348-2.7-1.348-6.076-3.379s-2.7-.674-4.053-4.727-.674-2.022-6.076-1.348-6.758-.674-6.758-2.7-5.4-6.076-5.4-8.106,1.348-3.371,2.022-7.424.674-4.053,1.749-6.084,2.978.674,6.357,0,1.348-2.022,2.031-4.727,2.022-2.022,4.045-5.4,0-3.379.683-4.727,3.371-1.348,4.727-2.022,1.348-2.7,2.022-4.736-6.75-12.825-8.3-14.634-1.152,3.157-1.826,5.854-4.727,2.031-6.75,4.053-4.736,0-7.432,0-4.727-2.022-6.758-2.022-4.727,0-5.581-2.261-3.2-.444-5.973-.043-3.3-1.749-4.377-2.167-1.63-6.331-.273-9.036.333-6.417,1.007-9.122,1.357-3.371,3.379-6.076-8.106-4.727-8.934-6.485-5.248-1.621-6.127,0-6.553,1.084-7.9.41-4.053-.674-6.758,1.348c-2.62,1.963-7.441,1.92-7.722,1.92,1.331-.691,2.321-1.408,2.321-1.92,0-1.348,2.7-4.053,4.727-4.053s5.4-8.781,5.4-10.8.683-6.758,2.031-7.432,2.7-8.106,2.7-10.129,2.7-4.727,4.736-6.084-3.157-4.642-3.157-4.642c.683-1.638-1.357-1.374,2.142-3.123,4.053-2.022,6.75.674,7.424,0s0-.674,2.031-4.053.674,0,2.7-4.727,0-3.379,2.022-4.727,6.75-2.7,6.75-2.7,3.379,2.022,5.41.674,3.823-1.015,4.949-2.534,1.8-4.224,2.475-4.9.683-3.379,1.357-6.076,1.348-3.379,6.076-4.053,0,4.8,0,6.792.674,4.011,0,6.041-2.7,6.75-1.348,8.781,2.85,2.415,3.447,3.567,1.28-.87,3.3-2.893,4.053,0,4.727-2.7-1.143-3.038,1.118-4.557,10.368.5,13.747-1.519,6.076-6.084,8.1-4.727,3.379,4.727,5.41,2.022,6.076-4.727,6.75-4.727,6.758,4.727,8.78,5.4,5.487,4.395,8.49,3.55,3-2.876,6.366-1.519,6.28-.341,7.193,1.519-1.109,2.534-1.783,3.883-.683,1.348-2.031,4.053-2.022,3.379-2.022,4.727-3.379,4.727-.674,4.053,4.045,0,8.772-.674,10.811,1.348,12.834-2.031S400.2,174.6,400.2,171.9s-2.022-3.217,0-5.325,2.7-3.456,3.379-2.1,3.379,2.7,5.4,2.7,5.41-2.022,6.084,0,0,8.106,2.022,8.106,4.727,2.031,4.053,3.379a14.011,14.011,0,0,0-1.348,4.053c0,.674.674,5.4,3.379,2.7s4.045-1.348,5.4-5.4-.674-2.022,2.7-4.727,3.379-5.4,6.084-4.053,0,2.031,3.371,2.7a20.9,20.9,0,0,0,9.463-.674c2.022-.674-3.379-2.031,2.7-2.7s5.4-.674,7.432-1.348-.674-2.7,4.727-3.379,8.866-3.712,9.839-3.883a10.3,10.3,0,0,0,2.15-.956s2.534,2.475,2.534,5.18-.683,3.371-2.7,6.076,0,7.432,1.7,10.888,1.681,6.673,3.029,10.052S484.967,198.579,484.967,201.275Z" transform="translate(-35.53 -21.543)" fill="none" stroke="#fff" stroke-miterlimit="10" stroke-width="3"/>
            <path id="Caminho_45" data-name="Caminho 45" d="M770.6,257.388c-1.357,1.357,0,1.357-3.379,4.727s-4.727,10.137-6.758,11.485-4.053,1.348-5.4,3.379,1.348,2.7,2.031,4.053-.683,2.022-2.705,2.022-1.348,5.4-3.379,5.4-2.022,5.41-4.053,6.084-6.75,4.727-4.053,6.75,4.053,5.4,2.031,6.758-4.727,3.371-6.076,4.053-4.053,1.348-1.357,3.371,5.4,4.053,2.7,4.727-4.727,4.053-6.758,2.7-2.022-4.727-5.4-3.379-4.727-1.348-5.4,2.031-3.379,6.076.674,6.75,6.076,1.357,3.379,2.7-6.084,4.053-8.781,4.053-6.758.674-4.053,5.4-1.348,1.348-3.379,4.053-2.022,6.076-4.053,6.75-2.7-2.022-5.734,0-4.394,1.357-4.394,4.053,4.053,2.7,2.022,5.4-5.4,5.41-6.75,4.053,1.348-4.053-1.348-4.053-4.045,2.748-5.4,4.412-3.379,1-4.053,2.347,0,4.053-2.7,4.053-5.4,0-6.758-2.031-1.348-.674-4.045,0-3.379,1.357-5.41,1.357-2.022-2.031-4.727-.674-1.348,3.371-4.727,6.076-1.348,4.053-4.727,5.4a3.365,3.365,0,0,0-2.1,3.336c-1.084.3-7.7-7.048-9.719-10.427s-2.7-4.727-5.29-2.031-2.816.683-5.512,4.053a17.1,17.1,0,0,0-3.456,10.137c-.068,2.7-6,2.022-11.409,0s-3.37-3.379-4.727-5.4-2.022-2.031-6.622-2.987-5.529.956-9.429,0-2.859-1.749-3.533-3.772-3.379-2.022-7.432-3.379-6.076-1.348-8.781-2.7-8.78-4.053-9.455-7.432-7.424-6.75-10.112-7.808-2.722-1.647-3.456,0-1.289,3.08-3.072,6.716-.922,5.145-.247,8.524,0,5.4-2.7,6.75-5.4-.674-7.774-2.7-2.355-2.7-5.734-3.371-2.7,0-6.221,3.371-1.886,2.7-6.9,4.736-5.111.674-7.816,0-2.022-3.379-2.893-4.736-2.509-6.75-1.015-8.661,1.212-3.49,0-6.792-3.524-.751-6.161-.333-6.144.93-6.818-1.766,1.357-3.379,3.379-4.727,2.7-3.379,3.379-5.41-4.727-2.7-9.455-3.371-14.865-9.455-14.182-12.16.674-4.053-1.229-7.748-.8-8.465-.128-10.487c.4-1.195-.145-3.567-1.348-5.6,0,0,3.951-1.886,7.04-3.208s4.446-1.323,7.816-2.679,4.2-5.4,3.447-7.765-.085-6.357.256-7.739a5.026,5.026,0,0,1,5.751-3.4c3.379.674,7.5-.179,8.482-2.79s1.655-4.642.3-7.338-5.4-4.727-4.727-8.78a44.663,44.663,0,0,0,.674-9.455c0-4.053.683-3.379,1.357-6.758s-2.7-4.727.674-8.106,6.75-6.75,6.75-11.477,1.357-10.129,1.357-11.485.674-3.371,4.053-5.4,2.7-3.379,4.053-5.4,1.348-4.053,1.348-6.758-2.031-4.727-3.379-8.1-1.34-6.6-3.029-10.052-3.72-8.183-1.7-10.888,2.7-3.379,2.7-6.076-2.534-5.18-2.534-5.18c1.109-.589,2.193-1.237,2.193-1.237s3.379-2.7,3.379-5.41.674-2.7,1.348-6.076,2.031-2.876,0-5.828a15.705,15.705,0,0,1-2.705-7.68,8.488,8.488,0,0,1,.683-4.053c.674-1.348.785-4.207,3.1-4.13a5.009,5.009,0,0,1,3.652,2.108s2.031-4.053,3.379-4.727,5.4.674,6.076.674,8.78,2.7,9.455,4.727,2.705,9.455,6.084,8.78,5.4-2.031,6.076-2.031,4.053,1.357,5.4.683,2.7-.683,4.053-3.379,1.348-2.7,3.379-4.053,6.75.674,6.75,1.348,1.357,3.379,2.031,5.4,2.022,3.379,4.053,2.7.674-2.022,6.076-.674,6.084,3.379,8.781,1.348,4.727-.674,7.432-.674,6.75,0,8.106-2.7a26.509,26.509,0,0,0,2.022-9.455c0-2.022,0-4.053,1.348-4.727s2.031,0,5.41.674,6.076,8.781,7.424,11.485.674,4.727,4.727,4.727-.674,0,5.4.674,5.41,2.7,8.781,0,5.41-2.022,8.106-2.022,6.758,1.348,8.106-.674,2.022.674,4.053-2.7.674-4.053,2.705-4.727,6.75,3.379,8.1,5.4.683,8.721,0,10.444,0,4.412-2.022,7.791-.674,6.076,0,5.4,7.432,1.357,10.129,2.031,4.727,1.348,2.031,4.727-2.031,4.053-2.705,6.75,0,6.758-2.022,9.455-.683,6.758-2.031,10.137-1.348,5.4-2.7,8.781-.683,4.727,0,6.75,2.022,6.084,2.022,8.106,1.348,4.727-.674,5.4.674,3.379,4.053,6.084,7.424,8.1,9.455,8.1,4.053-2.7,8.106-4.053,4.727-.674,5.4-3.371-1.348-2.7,2.022-2.031,6.758,2.031,8.781.674,2.031,2.7,5.4,2.031a31.125,31.125,0,0,1,6.758-.674c1.348,0,12.834,2.7,13.508,4.053s9.455,6.076,10.129,7.424,4.727,10.137,8.106,11.485,6.869.674,9.173,3.712S771.952,256.04,770.6,257.388Z" transform="translate(-68.905 -17.208)" fill="none" stroke="#fff" stroke-miterlimit="10" stroke-width="3"/>
            <path id="Caminho_46" data-name="Caminho 46" d="M305.869,393.081c0,2.022-2.022,3.371-2.022,6.076s-1.348,4.036,2.022,4.719,7.432,3.388,6.084,6.084,4.727,3.379,4.053,6.084-3.379,7.424-4.053,11.477,2.7,4.727,0,8.106-.674,2.7-1.357,6.758-2.022,3.371-3.371,6.75a15.818,15.818,0,0,0-.674,7.432s2.082,3.379,3.737,0,.99,0,3.012-4.053,2.133-6.741,2.756-4.719,3.319,3.371,4.676,6.741,4.053,5.41,1.348,6.758-6.076,7.432-6.758,10.129-2.022,6.758-4.045,8.106S306,492,306,492" transform="translate(-44.534 -57.663)" fill="none" stroke="#fff" stroke-miterlimit="10" stroke-width="3"/>
            <path id="Caminho_47" data-name="Caminho 47" d="M292.832,350.314l.017-.017c.009-.009.026-.026.034-.026" transform="translate(-42.957 -51.383)" fill="none" stroke="#fff" stroke-miterlimit="10" stroke-width="3"/>
            <path id="Caminho_48" data-name="Caminho 48" d="M302.673,341.047c-2.7,1.348-1.357,5.4-3.379,9.455s-3.379,8.781-8.106,10.811-10.129,4.727-10.129,6.076-4.053,4.727-6.084,2.7c0-2.031-6.076-4.727-6.75-4.727s-5.4.674-6.084-1.357,2.7-5.4,4.736-6.75.674-2.7-3.379-4.053-3.379-.674-3.379-3.379.674-1.348,2.022-6.75-.674-4.053.683-6.084c1.3-1.946,1.032-3.575.742-3.431.5-.511,4.446-4.65,5.674-7.713,1.348-3.371-12.834-8.106-14.865-8.106s-2.7-3.371-3.371-4.727-2.031-2.022-4.053-.674-.683.674-4.258.947-2.5-2.3-5.879-2.3-1.348,1.348-2.022,4.053-1.348,2.022-1.613,4.7-1.092,2.731-3.456,5.5-1.69,1.271-2.364,4.651-1.348,1.348-1.766,3.746-.93,5.034-1.613,8.414-2.022,2.7-4.045,5.4-8.106-2.022-7.885-5.657-2.253-1.775-4.275-3.124-2.031-2.7-4.941-4.053-5.871-1.347-5.188,0-.683,6.759-3.379,6.759-5.4,2.022-7.432,4.727-3.379,3.379-4.727,4.726-.674,5.4-2.7,7.433-7.774-2.372-7.774-2.372c1.357-1.348-1.348-2.022-3.371-4.727s0-3.371-2.031-3.371-4.727,2.022-6.076,3.371-2.7-1.348-4.727-.674-3.379.674-4.053-.674,3.379-3.379,2.022-4.727-4.053-.674-5.017.751-3.763,3.976-4.437,5.325-4.727-.674-5.4-1.348-2.031-2.022-3.379-1.348-3.379.674-6.076.674-6.084,2.022-7.432,3.379-.674,3.371-.674,4.053-4.053,2.022-8.106,1.348a54.93,54.93,0,0,0-10.18-.674H95.994c-2.022,0-1.348-6.084-.674-8.78S93.3,345.1,93.3,343.752s6.75-3.379,8.106-4.053-2.031-4.727-4.053-4.727a10.418,10.418,0,0,1-4.369-1.382c1.041-.324,1.613-2.056,2.364-3.157,1.033-1.493,3.695-4.582,7.748-1.2s4.727-1.348,7.424-2.022,2.031-4.727,3.379-6.084-1.348-2.7-2.7-5.4,1.357-2.022,3.379-2.022,4.053-.683,7.432-1.357a12.231,12.231,0,0,1,8.78,1.357c2.022,1.348,3.371,1.348,6.076.674s1.348,1.348,5.4,2.022,6.758-6.75,8.781-8.106.674-6.75,1.357-9.455,4.045-4.727,8.772-6.75,8.106-2.031,12.834-2.7,5.41-5.4,2.031-6.75-2.7-3.379-5.4-4.727-3.379-.683-4.727-3.379,1.348-2.7.947-6.161.4-3.294,1.075-4.651,4.727-.674,4.053-2.7,1.348-2.7,2.022-4.727,7.432-2.031,10.137-3.379,16.2-.674,18.909-.674,4.053-4.053,4.727-6.084,4.053-2.7,6.076-2.7a19.945,19.945,0,0,0,6.451-2.133h.009c.282,0,5.1.043,7.722-1.92,2.7-2.022,5.41-2.022,6.758-1.348s7.014,1.212,7.9-.41,5.29-1.749,6.127,0,10.956,3.78,8.934,6.485-2.7,3.379-3.379,6.076.341,6.417-1.007,9.121-.794,8.628.273,9.037,1.6,2.56,4.377,2.167,5.12-2.21,5.973.043,3.558,2.261,5.581,2.261,4.053,2.022,6.758,2.022,5.418,2.031,7.432,0,6.076-1.348,6.75-4.053.282-7.654,1.826-5.854,8.977,12.612,8.3,14.634-.674,4.053-2.022,4.736-4.053.674-4.727,2.022,1.348,1.348-.683,4.727-3.371,2.7-4.045,5.4,1.348,4.053-2.031,4.727-5.29-2.022-6.357,0-1.075,2.031-1.749,6.084-2.022,5.4-2.022,7.424,5.4,6.084,5.4,8.106,1.348,3.379,6.758,2.7,4.727-2.7,6.076,1.348.674,2.7,4.053,4.727,2.022,2.031,6.076,3.379a2.52,2.52,0,0,1,1.579,1.109C307.75,337.676,304.789,339.989,302.673,341.047Z" transform="translate(-13.64 -34.676)" fill="none" stroke="#fff" stroke-miterlimit="10" stroke-width="3"/>
            <g id="Grupo_13" data-name="Grupo 13" transform="translate(14.216 48.375)" opacity="0.18">
              <g id="Grupo_12" data-name="Grupo 12">
                <g id="Grupo_11" data-name="Grupo 11" clip-path="url(#clip-path-4)">
                  <path id="Caminho_49" data-name="Caminho 49" d="M219.2,101.387c-2.022,1.9-3.371,4.608-4.727,4.608s-2.7-.683-4.053.674,0,2.022-2.7,4.053-2.031,3.371-4.053,3.371-2.031-.674-2.7,1.357a11.105,11.105,0,0,1-2.022,4.053c-.674.674,0,2.7-2.7,4.727s-3.371,2.022-4.727,4.727-2.7,4.727-3.379,6.75-2.022,4.053-1.348,5.4,4.053,2.031,4.053,5.41-.674,4.053,1.348,4.053,2.031-.683,3.379-.683,4.053,3.379,4.053,4.727a19.074,19.074,0,0,1-.674,5.41c-.674,2.7-.674,8.1,1.348,9.455.2.137.384.273.563.418a11.652,11.652,0,0,1-3.26,3.635c-2.031,1.348-2.7-1.357-6.758-.674s-2.7,2.022-4.053,4.727-3.379,2.022-6.75,3.371-6.084,3.379-6.758,4.727-3.379-2.022-4.727-3.371-2.7.674-2.7,2.022-1.357,3.379-3.379,4.727-2.7,0-4.727-.674-1.357,0-3.379.674-4.727-.674-6.758-2.7-2.7,0-3.371,1.348-2.7,2.022-5.41,2.022-5.4,2.031-6.076,2.7-4.727,2.022-8.106,5.4-1.348,2.031-3.371,2.7a2.364,2.364,0,0,1-3.379-2.031c0-1.348-2.7-2.022-4.727-1.348s-2.7,2.7-4.053,5.384,0,8.123,0,10.146-.674,4.053-3.379,4.727-3.379,3.379-4.053,4.736,2.031,2.7,2.7,6.076-2.031,3.379-2.534,5.512-2.867,1.237-6.323,0-1.954-4.164-3.976-3.49-.674.674-4.053,1.357-1.348-1.357-4.053-2.031-3.379-3.379-4.727-4.053-1.348,7.432-2.7,8.106-1.348-.674-3.371-4.053-5.4,0-7.432,1.348-2.7,2.031-6.076,2.031-2.031,1.348-4.053,2.7-2.031,0-4.727.674-1.357,2.7-4.036,3.84-2.722-1.818-5.418-1.818S34.718,242,34.718,242c-.145-.777-.23-1.271-.23-1.271s-3.379-10.129-3.379-11.477.674-7.646,0-9.233-2.7-4.275-3.379-4.275-.674-2.7-2.7-4.727-7.774-17.228-7.774-18.576-1.348-3.379,0-5.069,2.031-3.038,2.031-6.417-1.348-4.727-1.348-6.076,3.371,2.7,2.7-3.379-1.348-4.727-1.348-7.424-1.348,0,0-4.053.674-2.7,1.348-6.084-1.348-1.348,2.7-4.727,6.75-8.106,8.106-10.129a6.886,6.886,0,0,1,5.4-3.379c2.022,0,4.727,2.7,8.106-2.022s4.727-3.379,5.4-6.084,2.022-3.371,2.022-6.75,0-1.348,4.727-4.727,8.106-2.031,10.811-5.4,4.727-4.727,5.4-6.758,1.348-2.022,1.348-4.727,1.348-2.7,2.7-4.727,1.348-2.022,4.053-3.379,4.053-2.022,7.424-2.022h5.529c3.251,0,2.893,1.348,7.125,0s6.263-2.031,6.263-4.053-.683-2.031,1.348-3.379,0-1.348,2.022-1.348,2.543.674,6,0S124.647,78.3,126,78.979s3.371,1.348,4.727,2.022-2.031,2.7,2.7,1.348a43.431,43.431,0,0,0,6.084-2.022s1.348,3.379,3.371,2.022,4.727-6.076,6.758-6.076,4.053.674,4.727,2.022,1.348,2.031,2.7.683,1.374.674,2.372-2.7-3.729-3.379,3.029-4.727,4.727-2.7,7.424-4.727,2.662,0,4.036,0,2.048-2.7,2.722-4.727.674-1.348,2.7-1.348,2.022,2.022,3.371,2.022,2.287-.9,3.848-2.133,3.584.111,3.584-1.92.674-2.022.674-2.022,3.379,1.348,3.379,4.053-1.348,4.045-1.348,6.076,1.348,6.34,1.348,7.893v5.751c0,1.886-1.348,3.686,0,4.139s.674,2.475,2.7,1.126,5.41-4.053,6.758-4.053h3.379c1.348,0,2.7-1.348,4.727-1.348s5.4,4.053,6.076,5.4,1.348,6.758,1.348,8.106,2.031,5.649,0,7.552" transform="translate(-16.659 -56.691)" fill="none" stroke="#707070" stroke-width="3"/>
                </g>
              </g>
            </g>
            <g id="Grupo_16" data-name="Grupo 16" transform="translate(32.273 161.582)" opacity="0.18">
              <g id="Grupo_15" data-name="Grupo 15">
                <g id="Grupo_14" data-name="Grupo 14" clip-path="url(#clip-path-5)">
                  <path id="Caminho_50" data-name="Caminho 50" d="M234.133,194c-2.031,1.357-4.736,4.053-4.736,6.084s-1.348,9.455-2.7,10.129-2.031,5.4-2.031,7.432-3.371,10.8-5.4,10.8-4.727,2.7-4.727,4.053c0,.512-.99,1.229-2.321,1.92h-.009a19.945,19.945,0,0,1-6.451,2.133c-2.022,0-5.4.674-6.076,2.7s-2.031,6.084-4.727,6.084-16.213-.674-18.909.674-9.463,1.348-10.137,3.379-2.7,2.7-2.022,4.727-3.379,1.348-4.053,2.7-1.476,1.2-1.075,4.651-2.3,3.456-.947,6.161,2.022,2.022,4.727,3.379,2.022,3.371,5.4,4.727,2.7,6.076-2.031,6.75-8.1.674-12.834,2.7-8.1,4.053-8.772,6.75.674,8.106-1.357,9.455-4.727,8.781-8.781,8.106-2.7-2.7-5.4-2.022-4.053.674-6.076-.674a12.231,12.231,0,0,0-8.78-1.357c-3.379.674-5.4,1.357-7.432,1.357s-4.727-.683-3.379,2.022,4.053,4.053,2.7,5.4-.674,5.4-3.379,6.084-3.379,5.4-7.424,2.022-6.716-.29-7.748,1.2c-.751,1.1-1.323,2.833-2.364,3.157a1.533,1.533,0,0,1-1.374-.307c-2.031-1.348-5.4-1.348-6.758-4.727s-3.371-7.432-6.076-7.432-2.7,4.053-5.4,2.031-2.7-4.727-4.727-4.053-2.7-1.357-6.084-2.7A30.5,30.5,0,0,0,46,307.987c.017-.316.034-.606.034-.853,0-4.053-4.727-8.78-4.727-10.129s3.379-8.78,1.348-12.16-2.7-13.508-3.371-16.2c-.478-1.911-1.126-5.325-1.459-7.176,0,0,3.481-3.635,6.186-3.635s2.739,2.961,5.418,1.818,1.331-3.166,4.036-3.84,2.7.674,4.727-.674.674-2.7,4.053-2.7,4.053-.674,6.076-2.031,5.4-4.727,7.432-1.348,2.022,4.727,3.371,4.053,1.357-8.781,2.7-8.106,2.031,3.379,4.727,4.053.674,2.7,4.053,2.031,2.022-.683,4.053-1.357.521,2.253,3.976,3.49,5.811,2.133,6.323,0,3.208-2.133,2.534-5.512-3.379-4.727-2.7-6.076,1.348-4.053,4.053-4.736,3.379-2.7,3.379-4.727-1.348-7.466,0-10.146,2.022-4.71,4.053-5.384,4.727,0,4.727,1.348a2.364,2.364,0,0,0,3.379,2.031c2.022-.674,0,.674,3.371-2.7s7.432-4.727,8.106-5.4,3.379-2.7,6.076-2.7,4.736-.674,5.41-2.022,1.348-3.379,3.371-1.348,4.727,3.371,6.758,2.7,1.348-1.348,3.379-.674,2.7,2.022,4.727.674,3.379-3.379,3.379-4.727,1.348-3.379,2.7-2.022,4.053,4.727,4.727,3.371,3.379-3.371,6.758-4.727,5.4-.674,6.75-3.371,0-4.053,4.053-4.727,4.727,2.022,6.758.674a11.652,11.652,0,0,0,3.26-3.635c1.63,1.314,2.543,2.961,6.195,2.961h6.75c5.4,0,1.126.956,6.306-.2s5.18.87,7.2-1.835a4.794,4.794,0,0,0,.563-.93s5.18,3.294,3.157,4.642" transform="translate(-37.822 -189.361)" fill="none" stroke="#707070" stroke-width="3"/>
                </g>
              </g>
            </g>
            <g id="Grupo_19" data-name="Grupo 19" transform="translate(122.232 260.696)" opacity="0.18">
              <g id="Grupo_18" data-name="Grupo 18">
                <g id="Grupo_17" data-name="Grupo 17" clip-path="url(#clip-path-6)">
                  <path id="Caminho_51" data-name="Caminho 51" d="M597.2,412.61c-.1,1.468.094,3.055-.6,4.1-1.357,2.022-2.7,5.4-5.41,6.75s-6.076,2.7-6.076,5.4,0,3.379-3.379,4.736-6.75,5.4-4.053,8.781,5.41,6.076,2.031,8.1-8.106,10.811-9.455,14.865-4.053,4.727-6.758,6.076-6.076,4.053-13.508,2.022-8.106-2.7-10.8-2.022-3.84,3.481-5.973,2.756-2.133-2.082-5.512-2.082-6.75,2.031-4.727,4.053,2.031,2.7-.674,5.4-1.348,6.084-4.053,7.432-4.727,4.053-8.106,4.053-8.78,1.348-11.477,1.348-4.181-.674-6.144,0-7.364,7.432-7.364,10.811,0,4.727-3.379,4.045-8.78-1.348-9.455-1.348-.674-3.379.674-6.076,3.379-2.705,3.379-6.758-4.053-3.371-4.727-6.076-3.379-5.4,0-6.758,4.053-2.022,2.7-5.4-6.75-5.4-8.78-4.727-7.424,1.348-7.424,4.053-2.031,5.4-3.379,5.4-2.031-2.022-5.4-2.7-3.379.674-8.106,0-9.455-3.379-10.129-2.031,0,4.053-2.031,4.053-7.424-3.3-7.765-1.314-1.69,7.39,1.69,8.072a26.4,26.4,0,0,1,8.78,4.053c2.022,1.348,4.727,1.348,2.7,4.727s.683,6.75-1.348,9.455-2.022,1.348-5.4,2.7-4.053,2.7-4.727,5.4-5.649,3.378-8.9,0-4.864-.154-5.751,2.286,1.143,7.85,4.523,8.524.674,4.727-.683,6.75-5.4,15.539-8.78,15.539-4.045-2.031-6.75-4.727S387.9,532.2,385.2,530.17s-8.1-3.38-10.129-2.023-5.4,2.023-6.076,4.727-2.7,2.022-2.7,6.076-4.727,3.38-4.727,0-.674-6.75-4.053-8.78-6.75-2.706-7.424-.675-2.031,7.432-3.379,6.076-2.7-3.37-4.727-2.022-4.727-2.031-5.4-4.053a39.2,39.2,0,0,0-3.379-6.076s2.7,0,4.053-3.379.674-4.053,2.022-8.106,6.758-8.106,0-8.106-12.16,4.727-13.508,2.031-1.348-4.727-3.379-6.084,0-2.022,0-4.053-4.727-3.371-6.75-2.022-6.076,3.379-6.758,4.727-4.053,3.379-5.4,0-2.022-4.053-5.4-6.75-4.053-4.053-7.432-4.053-10.129,0-4.727-4.053S292,476.812,292,476.812s-6.084-.674-8.106.674-2.7,3.379-4.727,2.7-3.379-4.053-4.053-.674a33.187,33.187,0,0,1-2.7,8.781c-1.348,2.7-3.379,6.076-5.4,6.076s1.348.674-4.727,1.348-8.781,2.031-10.8-.674,2.022-4.727-3.379-5.4-4.727,1.348-8.106,1.348c-2.2,0-2.389-.572-3.379-.034V482.9c0-2.031-1.348-2.7-1.348-1.357s-1.348,2.7-4.053,4.727-2.7,5.41-4.727,6.084-2.022,0-4.053-1.357-1.348-.674-6.75-1.348-3.379-3.379-5.41-2.705-5.4-.674-4.727-2.022-.674-4.053-2.022-4.053-2.031,2.031-4.625,4.668-.777,3.439-.1,8.166-2.031,2.7-4.941,4.053-12.62.674-16,0-2.022-5.4-4.053-7.432-6.076-.674-6.076-2.7-.674-3.379-4.053-3.379a3.309,3.309,0,0,1-3.379-3.379c-3.379-2.7-.674-1.348-2.022-4.053s-1.357-3.379,0-6.75,1.348-3.379,3.379-4.727,2.7-5.41,3.371-6.758-.674-4.053,0-5.4-2.7-4.727-4.053-6.758-2.022-3.371-1.348-4.727,2.7-2.7,4.053-3.371,0-4.053-1.348-5.41,2.022-1.348,3.371-3.371,1.357-2.031,3.379-2.031,2.031-3.379,1.348-5.4.683-2.7,2.7-2.7,2.7-2.022,4.053-4.053,1.348-3.371,4.053-5.4,1.348-2.022.674-4.053-1.348-2.7-1.348-4.053-3.379-1.348-6.758-4.045-6.076,0-8.781,0-4.727,3.371-7.424,4.727-2.7-2.031-3.379-3.379-4.727,0-6.076,1.348-2.031,1.348-4.053,1.348,0-4.727,2.022-6.75,3.379-7.432,3.379-10.129,1.348-2.031,4.053-3.379,3.371-3.379,5.4-4.727-.674-2.7,0-4.727,3.379-1.348,4.727,0,6.75-2.031,10.8-2.031,2.7-2.7,4.053-4.053c0,0,5.743,4.395,7.774,2.372s1.348-6.084,2.7-7.432,2.7-2.031,4.727-4.727,4.727-4.727,7.432-4.727,4.053-5.4,3.379-6.758,2.27-1.348,5.188,0,2.91,2.7,4.941,4.053,4.505-.512,4.275,3.123,5.854,8.362,7.885,5.657,3.371-2.022,4.045-5.4,1.195-6.024,1.613-8.414,1.092-.367,1.766-3.746,0-1.877,2.364-4.651,3.2-2.833,3.456-5.5.939-2.005,1.613-4.7-1.348-4.053,2.022-4.053,2.3,2.568,5.879,2.3,2.227.41,4.258-.947,3.371-.674,4.053.674,1.348,4.727,3.371,4.727,16.213,4.736,14.865,8.106c-1.229,3.063-5.171,7.2-5.674,7.714.29-.145.555,1.485-.742,3.431-1.357,2.03.674.673-.683,6.083s-2.022,4.053-2.022,6.75-.674,2.031,3.379,3.38,5.4,2.7,3.379,4.053-5.41,4.726-4.736,6.749,5.41,1.358,6.084,1.358,6.75,2.7,6.75,4.726c2.031,2.022,6.084-1.357,6.084-2.7s5.4-4.053,10.129-6.075,6.076-6.759,8.106-10.812.674-8.106,3.379-9.454c2.116-1.059,5.077-3.371,4.275-4.967a6.269,6.269,0,0,1,5.094,0c2.449,1.254,5.06-.717,7.134-2.432a7.087,7.087,0,0,1,9.421,0c3.456,3.012,10.88,7.065,13.585,6.383s4.727-5.4,6.076-5.4.836,4.207,3.8,5.478,7.944-2.79,7.816-4.13,3.251-6.75,5.273-8.772,3.311,1.306,6.724-1.041,2.731-5.043,5.436-3.686,3.371,2.7,5.4.674,4.727-6.084,4.727-9.455-1.348-7.415,0-7.765,1.365-.333,4.395,0,4.847-.367,5.29-2.381,5.171-10.794,7.2-7.415,1.562,3.345,3.149,7.415,5.282,6.767,2.756,7.441-7.262.674-4.557,4.727,2.048,2.645,5.418,4.028a7.464,7.464,0,0,1,3.362,3.208c1.2,2.031,1.749,4.4,1.348,5.6-.674,2.022-1.766,6.792.128,10.487s1.9,5.043,1.229,7.748,9.455,11.485,14.182,12.16,10.129,1.348,9.455,3.371-1.348,4.053-3.379,5.41-4.053,2.022-3.379,4.727,4.173,2.184,6.818,1.766,4.958-2.961,6.161.333,1.493,4.881,0,6.792.154,7.3,1.015,8.661.2,4.053,2.893,4.736,2.807,2.022,7.816,0,3.379-1.365,6.9-4.736,2.841-4.045,6.221-3.371,3.362,1.331,5.734,3.371,5.069,4.053,7.774,2.7,3.379-3.379,2.7-6.75-1.536-4.889.247-8.524,2.347-5.077,3.072-6.716.768-1.058,3.456,0,9.438,4.429,10.112,7.808,6.758,6.076,9.455,7.432,4.727,1.348,8.781,2.7,6.758,1.357,7.432,3.379-.358,2.816,3.533,3.772,4.83-.956,9.429,0,5.273.956,6.622,2.987-.674,3.371,4.727,5.4,11.34,2.7,11.409,0a17.1,17.1,0,0,1,3.456-10.137c2.7-3.371,2.927-1.365,5.512-4.053s3.268-1.348,5.29,2.031,8.635,10.726,9.719,10.427" transform="translate(-143.246 -305.514)" fill="none" stroke="#707070" stroke-width="3"/>
                </g>
              </g>
            </g>
            <g id="Grupo_22" data-name="Grupo 22" transform="translate(37.47 280.217)" opacity="0.18">
              <g id="Grupo_21" data-name="Grupo 21">
                <g id="Grupo_20" data-name="Grupo 20" clip-path="url(#clip-path-7)">
                  <path id="Caminho_52" data-name="Caminho 52" d="M212.09,509.9c1.348,4.727,3.379,6.75,2.022,9.455s-1.348,3.379,2.031,6.75,1.348,2.7,2.7,6.084,4.053,5.4,0,6.75-5.4,2.705-8.1,1.357.674-3.379-4.053-4.053-3.379,0-6.758,2.022-6.076,1.348-7.432,0a7.661,7.661,0,0,0-5.4-2.022c-2.022,0-4.053-1.357-4.727,2.022s.674,4.727,1.357,7.432,4.045.674,0,6.75-4.736,6.084-4.053,8.78-1.357,4.053-2.7,6.084-1.348-1.357-3.379-4.053-2.022,2.022-4.727,2.022-1.348-3.379-4.727-3.379-2.7,4.727-4.053,3.379-6.75-6.076-8.106-7.424-2.022-4.053-6.75,0-4.053,4.727-5.4,7.424.674,1.348-2.7,0-2.7-4.727-7.432-2.7-4.727,1.348-6.75,3.371-.981-.785-4.881,1.971-4.676,2.645-5.973,0,4.1.06-1.306-2.645-6.076-.674-6.75-5.4,0-5.4,1.348-7.432,2.022-.674,3.379-3.371-2.031-5.41-3.379-6.084-2.022-4.727,0-5.4a10.559,10.559,0,0,0,5.4-5.4c.674-2.031.674-6.084-.674-6.084s-4.053,3.379-6.076,4.727-8.781-.674-8.106-4.727-1.348-10.129-2.7-12.151a19.041,19.041,0,0,1-3.371-7.432c-.683-3.379,4.045-9.455,0-9.455s-8.106,4.727-9.463,3.379-2.022-3.379-2.022-6.084,2.7-10.8,1.348-15.53-3.371-10.811-3.371-16.213-2.031-9.455-2.031-12.834,2.7-5.4,0-8.781-5.4-10.8-8.106-12.825-4.727-14.19-4.727-15.539-1.348-4.053-1.348-6.75.674-4.053-.674-8.106S55.4,386.97,55.4,383.6s2.022-10.137,0-10.811-4.053-4.053-4.053-5.4-3.379-9.455-4.053-12.16-3.379-7.424-3.379-8.781c0-1.263,2.969-13.226,3.345-18.056a30.5,30.5,0,0,1,8.473,1.51c3.379,1.348,4.053,3.379,6.084,2.7s2.022,2.022,4.727,4.053,2.7-2.031,5.4-2.031,4.727,4.053,6.076,7.432,4.727,3.379,6.758,4.727a1.533,1.533,0,0,0,1.374.307,10.418,10.418,0,0,0,4.369,1.382c2.022,0,5.4,4.053,4.053,4.727s-8.106,2.7-8.106,4.053,2.7,2.022,2.022,4.727-1.348,8.78.674,8.78H95.87a54.928,54.928,0,0,1,10.18.674c4.053.674,8.106-.674,8.106-1.348s-.674-2.7.674-4.053,4.727-3.379,7.432-3.379,4.727,0,6.076-.674,2.7.674,3.379,1.348,4.727,2.7,5.4,1.348,3.473-3.891,4.437-5.325,3.669-2.1,5.017-.751-2.7,3.379-2.022,4.727,2.022,1.348,4.053.674,3.371,2.031,4.727.674,4.053-3.371,6.076-3.371,0,.674,2.031,3.371,4.727,3.379,3.371,4.727,0,4.053-4.053,4.053-9.455,3.379-10.8,2.031-4.053-2.031-4.727,0,2.022,3.379,0,4.727-2.7,3.379-5.4,4.727-4.053.674-4.053,3.379-1.348,8.106-3.379,10.129-4.053,6.75-2.022,6.75,2.7,0,4.053-1.348,5.4-2.7,6.076-1.348.674,4.727,3.379,3.379,4.727-4.727,7.424-4.727,5.4-2.7,8.781,0,6.758,2.7,6.758,4.045.674,2.031,1.348,4.053,2.031,2.031-.674,4.053-2.7,3.379-4.053,5.4-2.022,4.053-4.053,4.053-3.379.683-2.7,2.7.683,5.4-1.348,5.4-2.022,0-3.379,2.031-4.727,2.022-3.371,3.371,2.7,4.727,1.348,5.41-3.379,2.022-4.053,3.371,0,2.7,1.348,4.727,4.727,5.41,4.053,6.758.674,4.053,0,5.4-1.348,5.4-3.371,6.758-2.031,1.348-3.379,4.727-1.357,4.053,0,6.75-1.357,1.348,2.022,4.053a3.309,3.309,0,0,0,3.379,3.379c3.379,0,4.053,1.348,4.053,3.379s4.053.674,6.076,2.7.674,6.758,4.053,7.432,13.09,1.348,16,0,5.615.674,4.941-4.053-2.492-5.529.1-8.166,3.277-4.668,4.625-4.668,2.7,2.7,2.022,4.053,2.7,2.7,4.727,2.022,0,2.031,5.41,2.7,4.727,0,6.75,1.348,2.031,2.031,4.053,1.357,2.022-4.053,4.727-6.084,4.053-3.371,4.053-4.727,1.348-.674,1.348,1.357v8.064a20.722,20.722,0,0,0-2.7,2.065c-4.053,3.379-5.41,3.379-5.41,6.75s-4.045,2.031-2.7,6.758" transform="translate(-43.912 -328.391)" fill="none" stroke="#707070" stroke-width="3"/>
                </g>
              </g>
            </g>
            <g id="Grupo_25" data-name="Grupo 25" transform="translate(206.672 125.311)" opacity="0.18">
              <g id="Grupo_24" data-name="Grupo 24">
                <g id="Grupo_23" data-name="Grupo 23" clip-path="url(#clip-path-8)">
                  <path id="Caminho_53" data-name="Caminho 53" d="M484.967,201.275c0,2.7,0,4.727-1.348,6.758s-.683,3.379-4.053,5.4-4.053,4.053-4.053,5.4-1.357,6.758-1.357,11.485-3.371,8.106-6.75,11.477,0,4.736-.674,8.106-1.357,2.7-1.357,6.758a44.663,44.663,0,0,1-.674,9.455c-.674,4.053,3.379,6.076,4.727,8.78s.683,4.727-.3,7.338-5.1,3.464-8.482,2.79a5.026,5.026,0,0,0-5.751,3.4c-.341,1.382-1,5.376-.256,7.739s-.068,6.417-3.447,7.765-4.727,1.357-7.816,2.679-7.04,3.208-7.04,3.208a7.464,7.464,0,0,0-3.362-3.208c-3.371-1.382-2.714.026-5.418-4.028s2.022-4.053,4.557-4.727-1.178-3.379-2.756-7.441-1.126-4.045-3.149-7.415-6.758,5.4-7.2,7.415-2.253,2.714-5.29,2.381-3.046-.341-4.395,0,0,4.386,0,7.765-2.7,7.424-4.727,9.455-2.7.674-5.4-.674-2.031,1.348-5.436,3.686-4.7-.99-6.724,1.041-5.4,7.424-5.273,8.772-4.855,5.41-7.816,4.13-2.44-5.478-3.8-5.478-3.379,4.727-6.076,5.4-10.129-3.371-13.585-6.383a7.087,7.087,0,0,0-9.42,0c-2.074,1.715-4.685,3.686-7.134,2.432a6.269,6.269,0,0,0-5.094,0,2.52,2.52,0,0,0-1.579-1.109c-4.053-1.348-2.7-1.348-6.076-3.379s-2.7-.674-4.053-4.727-.674-2.022-6.076-1.348-6.758-.674-6.758-2.7-5.4-6.076-5.4-8.106,1.348-3.371,2.022-7.424.674-4.053,1.749-6.084,2.978.674,6.357,0,1.348-2.022,2.031-4.727,2.022-2.022,4.045-5.4,0-3.379.683-4.727,3.371-1.348,4.727-2.022,1.348-2.7,2.022-4.736-6.75-12.825-8.3-14.634-1.152,3.157-1.826,5.854-4.727,2.031-6.75,4.053-4.736,0-7.432,0-4.727-2.022-6.758-2.022-4.727,0-5.581-2.261-3.2-.444-5.973-.043-3.3-1.749-4.377-2.167-1.63-6.331-.273-9.036.333-6.417,1.007-9.122,1.357-3.371,3.379-6.076-8.106-4.727-8.934-6.485-5.248-1.621-6.127,0-6.553,1.084-7.9.41-4.053-.674-6.758,1.348c-2.62,1.963-7.441,1.92-7.722,1.92,1.331-.691,2.321-1.408,2.321-1.92,0-1.348,2.7-4.053,4.727-4.053s5.4-8.781,5.4-10.8.683-6.758,2.031-7.432,2.7-8.106,2.7-10.129,2.7-4.727,4.736-6.084-3.157-4.642-3.157-4.642c.683-1.638-1.357-1.374,2.142-3.123,4.053-2.022,6.75.674,7.424,0s0-.674,2.031-4.053.674,0,2.7-4.727,0-3.379,2.022-4.727,6.75-2.7,6.75-2.7,3.379,2.022,5.41.674,3.823-1.015,4.949-2.534,1.8-4.224,2.475-4.9.683-3.379,1.357-6.076,1.348-3.379,6.076-4.053,0,4.8,0,6.792.674,4.011,0,6.041-2.7,6.75-1.348,8.781,2.85,2.415,3.447,3.567,1.28-.87,3.3-2.893,4.053,0,4.727-2.7-1.143-3.038,1.118-4.557,10.368.5,13.747-1.519,6.076-6.084,8.1-4.727,3.379,4.727,5.41,2.022,6.076-4.727,6.75-4.727,6.758,4.727,8.78,5.4,5.487,4.395,8.49,3.55,3-2.876,6.366-1.519,6.28-.341,7.193,1.519-1.109,2.534-1.783,3.883-.683,1.348-2.031,4.053-2.022,3.379-2.022,4.727-3.379,4.727-.674,4.053,4.045,0,8.772-.674,10.811,1.348,12.834-2.031S400.2,174.6,400.2,171.9s-2.022-3.217,0-5.325,2.7-3.456,3.379-2.1,3.379,2.7,5.4,2.7,5.41-2.022,6.084,0,0,8.106,2.022,8.106,4.727,2.031,4.053,3.379a14.011,14.011,0,0,0-1.348,4.053c0,.674.674,5.4,3.379,2.7s4.045-1.348,5.4-5.4-.674-2.022,2.7-4.727,3.379-5.4,6.084-4.053,0,2.031,3.371,2.7a20.9,20.9,0,0,0,9.463-.674c2.022-.674-3.379-2.031,2.7-2.7s5.4-.674,7.432-1.348-.674-2.7,4.727-3.379,8.866-3.712,9.839-3.883a10.3,10.3,0,0,0,2.15-.956s2.534,2.475,2.534,5.18-.683,3.371-2.7,6.076,0,7.432,1.7,10.888,1.681,6.673,3.029,10.052,3.379,5.4,3.379,8.1" transform="translate(-242.202 -146.854)" fill="none" stroke="#707070" stroke-width="3"/>
                </g>
              </g>
            </g>
            <g id="Grupo_28" data-name="Grupo 28" transform="translate(400.807 100.096)" opacity="0.18">
              <g id="Grupo_27" data-name="Grupo 27">
                <g id="Grupo_26" data-name="Grupo 26" clip-path="url(#clip-path-9)">
                  <path id="Caminho_54" data-name="Caminho 54" d="M770.6,257.388c-1.357,1.357,0,1.357-3.379,4.727s-4.727,10.137-6.758,11.485-4.053,1.348-5.4,3.379,1.348,2.7,2.031,4.053-.683,2.022-2.705,2.022-1.348,5.4-3.379,5.4-2.022,5.41-4.053,6.084-6.75,4.727-4.053,6.75,4.053,5.4,2.031,6.758-4.727,3.371-6.076,4.053-4.053,1.348-1.357,3.371,5.4,4.053,2.7,4.727-4.727,4.053-6.758,2.7-2.022-4.727-5.4-3.379-4.727-1.348-5.4,2.031-3.379,6.076.674,6.75,6.076,1.357,3.379,2.7-6.084,4.053-8.781,4.053-6.758.674-4.053,5.4-1.348,1.348-3.379,4.053-2.022,6.076-4.053,6.75-2.7-2.022-5.734,0-4.394,1.357-4.394,4.053,4.053,2.7,2.022,5.4-5.4,5.41-6.75,4.053,1.348-4.053-1.348-4.053-4.045,2.748-5.4,4.412-3.379,1-4.053,2.347,0,4.053-2.7,4.053-5.4,0-6.758-2.031-1.348-.674-4.045,0-3.379,1.357-5.41,1.357-2.022-2.031-4.727-.674-1.348,3.371-4.727,6.076-1.348,4.053-4.727,5.4a3.365,3.365,0,0,0-2.1,3.336c-1.084.3-7.7-7.048-9.719-10.427s-2.7-4.727-5.29-2.031-2.816.683-5.512,4.053a17.1,17.1,0,0,0-3.456,10.137c-.068,2.7-6,2.022-11.409,0s-3.37-3.379-4.727-5.4-2.022-2.031-6.622-2.987-5.529.956-9.429,0-2.859-1.749-3.533-3.772-3.379-2.022-7.432-3.379-6.076-1.348-8.781-2.7-8.78-4.053-9.455-7.432-7.424-6.75-10.112-7.808-2.722-1.647-3.456,0-1.289,3.08-3.072,6.716-.922,5.145-.247,8.524,0,5.4-2.7,6.75-5.4-.674-7.774-2.7-2.355-2.7-5.734-3.371-2.7,0-6.221,3.371-1.886,2.7-6.9,4.736-5.111.674-7.816,0-2.022-3.379-2.893-4.736-2.509-6.75-1.015-8.661,1.212-3.49,0-6.792-3.524-.751-6.161-.333-6.144.93-6.818-1.766,1.357-3.379,3.379-4.727,2.7-3.379,3.379-5.41-4.727-2.7-9.455-3.371-14.865-9.455-14.182-12.16.674-4.053-1.229-7.748-.8-8.465-.128-10.487c.4-1.195-.145-3.567-1.348-5.6,0,0,3.951-1.886,7.04-3.208s4.446-1.323,7.816-2.679,4.2-5.4,3.447-7.765-.085-6.357.256-7.739a5.026,5.026,0,0,1,5.751-3.4c3.379.674,7.5-.179,8.482-2.79s1.655-4.642.3-7.338-5.4-4.727-4.727-8.78a44.663,44.663,0,0,0,.674-9.455c0-4.053.683-3.379,1.357-6.758s-2.7-4.727.674-8.106,6.75-6.75,6.75-11.477,1.357-10.129,1.357-11.485.674-3.371,4.053-5.4,2.7-3.379,4.053-5.4,1.348-4.053,1.348-6.758-2.031-4.727-3.379-8.1-1.34-6.6-3.029-10.052-3.72-8.183-1.7-10.888,2.7-3.379,2.7-6.076-2.534-5.18-2.534-5.18c1.109-.589,2.193-1.237,2.193-1.237s3.379-2.7,3.379-5.41.674-2.7,1.348-6.076,2.031-2.876,0-5.828a15.705,15.705,0,0,1-2.705-7.68,8.488,8.488,0,0,1,.683-4.053c.674-1.348.785-4.207,3.1-4.13a5.009,5.009,0,0,1,3.652,2.108s2.031-4.053,3.379-4.727,5.4.674,6.076.674,8.78,2.7,9.455,4.727,2.705,9.455,6.084,8.78,5.4-2.031,6.076-2.031,4.053,1.357,5.4.683,2.7-.683,4.053-3.379,1.348-2.7,3.379-4.053,6.75.674,6.75,1.348,1.357,3.379,2.031,5.4,2.022,3.379,4.053,2.7.674-2.022,6.076-.674,6.084,3.379,8.781,1.348,4.727-.674,7.432-.674,6.75,0,8.106-2.7a26.509,26.509,0,0,0,2.022-9.455c0-2.022,0-4.053,1.348-4.727s2.031,0,5.41.674,6.076,8.781,7.424,11.485.674,4.727,4.727,4.727-.674,0,5.4.674,5.41,2.7,8.781,0,5.41-2.022,8.106-2.022,6.758,1.348,8.106-.674,2.022.674,4.053-2.7.674-4.053,2.705-4.727,6.75,3.379,8.1,5.4.683,8.721,0,10.444,0,4.412-2.022,7.791-.674,6.076,0,5.4,7.432,1.357,10.129,2.031,4.727,1.348,2.031,4.727-2.031,4.053-2.705,6.75,0,6.758-2.022,9.455-.683,6.758-2.031,10.137-1.348,5.4-2.7,8.781-.683,4.727,0,6.75,2.022,6.084,2.022,8.106,1.348,4.727-.674,5.4.674,3.379,4.053,6.084,7.424,8.1,9.455,8.1,4.053-2.7,8.106-4.053,4.727-.674,5.4-3.371-1.348-2.7,2.022-2.031,6.758,2.031,8.781.674,2.031,2.7,5.4,2.031a31.125,31.125,0,0,1,6.758-.674c1.348,0,12.834,2.7,13.508,4.053s9.455,6.076,10.129,7.424,4.727,10.137,8.106,11.485,6.869.674,9.173,3.712,3.661,6.417,2.312,7.765" transform="translate(-469.712 -117.304)" fill="none" stroke="#707070" stroke-width="3"/>
                </g>
              </g>
            </g>
            <g id="Grupo_31" data-name="Grupo 31" transform="translate(249.875 298.888)" opacity="0.18">
              <g id="Grupo_30" data-name="Grupo 30">
                <g id="Grupo_29" data-name="Grupo 29" clip-path="url(#clip-path-10)">
                  <path id="Caminho_55" data-name="Caminho 55" d="M292.832,350.314l.017-.017c.009-.009.026-.026.034-.026" transform="translate(-292.832 -350.271)" fill="none" stroke="#707070" stroke-width="3"/>
                </g>
              </g>
            </g>
            <g id="Grupo_34" data-name="Grupo 34" transform="translate(79.342 201.703)" opacity="0.18">
              <g id="Grupo_33" data-name="Grupo 33">
                <g id="Grupo_32" data-name="Grupo 32" clip-path="url(#clip-path-11)">
                  <path id="Caminho_56" data-name="Caminho 56" d="M302.673,341.047c-2.7,1.348-1.357,5.4-3.379,9.455s-3.379,8.781-8.106,10.811-10.129,4.727-10.129,6.076-4.053,4.727-6.084,2.7c0-2.031-6.076-4.727-6.75-4.727s-5.4.674-6.084-1.357,2.7-5.4,4.736-6.75.674-2.7-3.379-4.053-3.379-.674-3.379-3.379.674-1.348,2.022-6.75-.674-4.053.683-6.084c1.3-1.946,1.032-3.575.742-3.431.5-.511,4.446-4.65,5.674-7.713,1.348-3.371-12.834-8.106-14.865-8.106s-2.7-3.371-3.371-4.727-2.031-2.022-4.053-.674-.683.674-4.258.947-2.5-2.3-5.879-2.3-1.348,1.348-2.022,4.053-1.348,2.022-1.613,4.7-1.092,2.731-3.456,5.5-1.69,1.271-2.364,4.651-1.348,1.348-1.766,3.746-.93,5.034-1.613,8.414-2.022,2.7-4.045,5.4-8.106-2.022-7.885-5.657-2.253-1.775-4.275-3.124-2.031-2.7-4.941-4.053-5.871-1.347-5.188,0-.683,6.759-3.379,6.759-5.4,2.022-7.432,4.727-3.379,3.379-4.727,4.726-.674,5.4-2.7,7.433-7.774-2.372-7.774-2.372c1.357-1.348-1.348-2.022-3.371-4.727s0-3.371-2.031-3.371-4.727,2.022-6.076,3.371-2.7-1.348-4.727-.674-3.379.674-4.053-.674,3.379-3.379,2.022-4.727-4.053-.674-5.017.751-3.763,3.976-4.437,5.325-4.727-.674-5.4-1.348-2.031-2.022-3.379-1.348-3.379.674-6.076.674-6.084,2.022-7.432,3.379-.674,3.371-.674,4.053-4.053,2.022-8.106,1.348a54.93,54.93,0,0,0-10.18-.674H95.994c-2.022,0-1.348-6.084-.674-8.78S93.3,345.1,93.3,343.752s6.75-3.379,8.106-4.053-2.031-4.727-4.053-4.727a10.418,10.418,0,0,1-4.369-1.382c1.041-.324,1.613-2.056,2.364-3.157,1.033-1.493,3.695-4.582,7.748-1.2s4.727-1.348,7.424-2.022,2.031-4.727,3.379-6.084-1.348-2.7-2.7-5.4,1.357-2.022,3.379-2.022,4.053-.683,7.432-1.357a12.231,12.231,0,0,1,8.78,1.357c2.022,1.348,3.371,1.348,6.076.674s1.348,1.348,5.4,2.022,6.758-6.75,8.781-8.106.674-6.75,1.357-9.455,4.045-4.727,8.772-6.75,8.106-2.031,12.834-2.7,5.41-5.4,2.031-6.75-2.7-3.379-5.4-4.727-3.379-.683-4.727-3.379,1.348-2.7.947-6.161.4-3.294,1.075-4.651,4.727-.674,4.053-2.7,1.348-2.7,2.022-4.727,7.432-2.031,10.137-3.379,16.2-.674,18.909-.674,4.053-4.053,4.727-6.084,4.053-2.7,6.076-2.7a19.945,19.945,0,0,0,6.451-2.133h.009c.282,0,5.1.043,7.722-1.92,2.7-2.022,5.41-2.022,6.758-1.348s7.014,1.212,7.9-.41,5.29-1.749,6.127,0,10.956,3.78,8.934,6.485-2.7,3.379-3.379,6.076.341,6.417-1.007,9.121-.794,8.628.273,9.037,1.6,2.56,4.377,2.167,5.12-2.21,5.973.043,3.558,2.261,5.581,2.261,4.053,2.022,6.758,2.022,5.418,2.031,7.432,0,6.076-1.348,6.75-4.053.282-7.654,1.826-5.854,8.977,12.612,8.3,14.634-.674,4.053-2.022,4.736-4.053.674-4.727,2.022,1.348,1.348-.683,4.727-3.371,2.7-4.045,5.4,1.348,4.053-2.031,4.727-5.29-2.022-6.357,0-1.075,2.031-1.749,6.084-2.022,5.4-2.022,7.424,5.4,6.084,5.4,8.106,1.348,3.379,6.758,2.7,4.727-2.7,6.076,1.348.674,2.7,4.053,4.727,2.022,2.031,6.076,3.379a2.52,2.52,0,0,1,1.579,1.109c.8,1.6-2.159,3.908-4.275,4.966" transform="translate(-92.982 -236.379)" fill="none" stroke="#707070" stroke-width="3"/>
                </g>
              </g>
            </g>
          </g>
        </g>
      </g>
    </g>
  </g>
</svg>
