<svg xmlns="http://www.w3.org/2000/svg" width="596.705" height="277.403" viewBox="0 0 596.705 277.403">
  <g id="Grupo_2" data-name="Grupo 2" transform="translate(3 2.26)">
    <path id="Caminho_1" data-name="Caminho 1" d="M157.893,69.684l-16.709-29.61H129.949v29.61h-6.473V1.418h19.372a24.033,24.033,0,0,1,8.239,1.333,18.213,18.213,0,0,1,6.234,3.714,15.812,15.812,0,0,1,3.93,5.736,19.645,19.645,0,0,1,1.356,7.4,20.75,20.75,0,0,1-1.047,6.736,17.984,17.984,0,0,1-3,5.5,17.761,17.761,0,0,1-4.786,4.117,22.8,22.8,0,0,1-6.448,2.547q2.137,3.758,4.4,7.711t4.546,7.926l4.544,7.9q2.26,3.925,4.357,7.64ZM129.949,7.465V34.076h10.473a20.411,20.411,0,0,0,6.45-.952,13.664,13.664,0,0,0,4.9-2.762,12.4,12.4,0,0,0,3.142-4.4,14.756,14.756,0,0,0,1.118-5.881q0-6-3.712-9.307t-10.9-3.306Z" transform="translate(133.416 -0.325)" fill="#fff" stroke="#fff" stroke-width="1"/>
    <path id="Caminho_2" data-name="Caminho 2" d="M157.893,69.684l-16.709-29.61H129.949v29.61h-6.473V1.418h19.372a24.033,24.033,0,0,1,8.239,1.333,18.213,18.213,0,0,1,6.234,3.714,15.812,15.812,0,0,1,3.93,5.736,19.645,19.645,0,0,1,1.356,7.4,20.75,20.75,0,0,1-1.047,6.736,17.984,17.984,0,0,1-3,5.5,17.761,17.761,0,0,1-4.786,4.117,22.8,22.8,0,0,1-6.448,2.547q2.137,3.758,4.4,7.711t4.546,7.926l4.544,7.9q2.26,3.925,4.357,7.64ZM129.949,7.465V34.076h10.473a20.411,20.411,0,0,0,6.45-.952,13.664,13.664,0,0,0,4.9-2.762,12.4,12.4,0,0,0,3.142-4.4,14.756,14.756,0,0,0,1.118-5.881q0-6-3.712-9.307t-10.9-3.306Z" transform="translate(133.416 -0.325)" fill="#fff" stroke="#fff" stroke-miterlimit="10" stroke-width="0.5"/>
    <path id="Caminho_3" data-name="Caminho 3" d="M149.318,69.684V1.418h32.893V7.465H155.744v24.8h24.563v6H155.744V63.686h27.992v6Z" transform="translate(161.889 -0.325)" fill="#fff" stroke="#fff" stroke-width="1"/>
    <path id="Caminho_4" data-name="Caminho 4" d="M149.318,69.684V1.418h32.893V7.465H155.744v24.8h24.563v6H155.744V63.686h27.992v6Z" transform="translate(161.889 -0.325)" fill="#fff" stroke="#fff" stroke-miterlimit="10" stroke-width="0.5"/>
    <path id="Caminho_5" data-name="Caminho 5" d="M228.5,69.684V16.746q-6.047,13.238-12.115,26.491T204.319,69.684h-2.667l-24.614-53.8v53.8h-6.093V1.418h5.712l25.091,54.033a17.224,17.224,0,0,1,.616,1.641,17.919,17.919,0,0,0,.717,1.833q.192-.523.525-1.473t.853-2.287L229.122,1.418h5.614V69.684Z" transform="translate(185.716 -0.325)" fill="#fff" stroke="#fff" stroke-width="1"/>
    <path id="Caminho_6" data-name="Caminho 6" d="M228.5,69.684V16.746q-6.047,13.238-12.115,26.491T204.319,69.684h-2.667l-24.614-53.8v53.8h-6.093V1.418h5.712l25.091,54.033a17.224,17.224,0,0,1,.616,1.641,17.919,17.919,0,0,0,.717,1.833q.192-.523.525-1.473t.853-2.287L229.122,1.418h5.614V69.684Z" transform="translate(185.716 -0.325)" fill="#fff" stroke="#fff" stroke-miterlimit="10" stroke-width="0.5"/>
    <path id="Caminho_7" data-name="Caminho 7" d="M239.681,71.4a32.793,32.793,0,0,1-13.092-2.522,28.577,28.577,0,0,1-9.994-7.094,31.752,31.752,0,0,1-6.383-10.927,41.989,41.989,0,0,1-2.234-14.019,45.184,45.184,0,0,1,2.285-14.78,31.954,31.954,0,0,1,6.568-11.331,29.251,29.251,0,0,1,10.4-7.26A35.156,35.156,0,0,1,240.97.9a30.969,30.969,0,0,1,12.566,2.5,28.29,28.29,0,0,1,9.782,7A31.94,31.94,0,0,1,269.651,21.2a41.035,41.035,0,0,1,2.259,13.924,46.721,46.721,0,0,1-2.285,15.093,32.712,32.712,0,0,1-6.5,11.425,28.209,28.209,0,0,1-10.16,7.234A33.739,33.739,0,0,1,239.681,71.4m.477-64.5A24.4,24.4,0,0,0,229.9,9.036a23.846,23.846,0,0,0-8.094,6.022,28.441,28.441,0,0,0-5.332,9.286,35.449,35.449,0,0,0-1.927,11.974,38.218,38.218,0,0,0,1.761,11.97,26.226,26.226,0,0,0,5.049,9.141,22.555,22.555,0,0,0,7.9,5.858,25.019,25.019,0,0,0,10.332,2.07,27.314,27.314,0,0,0,10.736-2.024,22.155,22.155,0,0,0,8.117-5.809,26,26,0,0,0,5.118-9.258,40.069,40.069,0,0,0,1.786-12.424,38.913,38.913,0,0,0-1.763-12.14,25.758,25.758,0,0,0-5.046-9.118,21.776,21.776,0,0,0-7.951-5.713A26.464,26.464,0,0,0,240.158,6.9" transform="translate(226.518 -0.898)" fill="#fff" stroke="#fff" stroke-width="1"/>
    <path id="Caminho_8" data-name="Caminho 8" d="M239.681,71.4a32.793,32.793,0,0,1-13.092-2.522,28.577,28.577,0,0,1-9.994-7.094,31.752,31.752,0,0,1-6.383-10.927,41.989,41.989,0,0,1-2.234-14.019,45.184,45.184,0,0,1,2.285-14.78,31.954,31.954,0,0,1,6.568-11.331,29.251,29.251,0,0,1,10.4-7.26A35.156,35.156,0,0,1,240.97.9a30.969,30.969,0,0,1,12.566,2.5,28.29,28.29,0,0,1,9.782,7A31.94,31.94,0,0,1,269.651,21.2a41.035,41.035,0,0,1,2.259,13.924,46.721,46.721,0,0,1-2.285,15.093,32.712,32.712,0,0,1-6.5,11.425,28.209,28.209,0,0,1-10.16,7.234A33.739,33.739,0,0,1,239.681,71.4Zm.477-64.5A24.4,24.4,0,0,0,229.9,9.036a23.846,23.846,0,0,0-8.094,6.022,28.441,28.441,0,0,0-5.332,9.286,35.449,35.449,0,0,0-1.927,11.974,38.218,38.218,0,0,0,1.761,11.97,26.226,26.226,0,0,0,5.049,9.141,22.555,22.555,0,0,0,7.9,5.858,25.019,25.019,0,0,0,10.332,2.07,27.314,27.314,0,0,0,10.736-2.024,22.155,22.155,0,0,0,8.117-5.809,26,26,0,0,0,5.118-9.258,40.069,40.069,0,0,0,1.786-12.424,38.913,38.913,0,0,0-1.763-12.14,25.758,25.758,0,0,0-5.046-9.118,21.776,21.776,0,0,0-7.951-5.713A26.464,26.464,0,0,0,240.158,6.9Z" transform="translate(226.518 -0.898)" fill="#fff" stroke="#fff" stroke-miterlimit="10" stroke-width="0.5"/>
    <path id="Caminho_9" data-name="Caminho 9" d="M265.952,7.465V69.684h-6.425V7.465H240.386V1.418h44.7V7.465Z" transform="translate(262.224 -0.324)" fill="#fff" stroke="#fff" stroke-width="1"/>
    <path id="Caminho_10" data-name="Caminho 10" d="M265.952,7.465V69.684h-6.425V7.465H240.386V1.418h44.7V7.465Z" transform="translate(262.224 -0.324)" fill="#fff" stroke="#fff" stroke-miterlimit="10" stroke-width="0.5"/>
    <path id="Caminho_11" data-name="Caminho 11" d="M267.115,69.684V1.418h32.893V7.465H273.54v24.8H298.1v6H273.54V63.686h27.992v6Z" transform="translate(291.674 -0.325)" fill="#fff" stroke="#fff" stroke-width="1"/>
    <path id="Caminho_12" data-name="Caminho 12" d="M267.115,69.684V1.418h32.893V7.465H273.54v24.8H298.1v6H273.54V63.686h27.992v6Z" transform="translate(291.674 -0.325)" fill="#fff" stroke="#fff" stroke-miterlimit="10" stroke-width="0.5"/>
    <path id="Caminho_13" data-name="Caminho 13" d="M171.849,161.1,132,107.069v.046a6.751,6.751,0,0,1-.572-.786q-.284-.451-.572-.879V161.1h-6.423V92.834h4.9l39.562,53.6a8.948,8.948,0,0,0,.548.784c.206.273.421.582.639.929-.029-.475-.046-.912-.046-1.309V92.834h6.429V161.1Z" transform="translate(134.473 100.396)" fill="#fff" stroke="#fff" stroke-width="1"/>
    <path id="Caminho_14" data-name="Caminho 14" d="M171.849,161.1,132,107.069v.046a6.751,6.751,0,0,1-.572-.786q-.284-.451-.572-.879V161.1h-6.423V92.834h4.9l39.562,53.6a8.948,8.948,0,0,0,.548.784c.206.273.421.582.639.929-.029-.475-.046-.912-.046-1.309V92.834h6.429V161.1Z" transform="translate(134.473 100.396)" fill="#fff" stroke="#fff" stroke-miterlimit="10" stroke-width="0.5"/>
    <path id="Caminho_15" data-name="Caminho 15" d="M204.714,161.1l-7.571-20.66H169.629q-1.86,5.047-3.833,10.355t-3.783,10.3h-7.045L180.72,92.834h5.666L211.854,161.1ZM184.1,104.926l.046.048c-.158-.38-.292-.754-.4-1.118s-.231-.755-.359-1.167q-.237.665-.427,1.19c-.128.351-.24.666-.334.952q-2.806,7.57-5.378,14.78t-5.33,14.784h22.941Z" transform="translate(168.112 100.396)" fill="#fff" stroke="#fff" stroke-width="1"/>
    <path id="Caminho_16" data-name="Caminho 16" d="M204.714,161.1l-7.571-20.66H169.629q-1.86,5.047-3.833,10.355t-3.783,10.3h-7.045L180.72,92.834h5.666L211.854,161.1ZM184.1,104.926l.046.048c-.158-.38-.292-.754-.4-1.118s-.231-.755-.359-1.167q-.237.665-.427,1.19c-.128.351-.24.666-.334.952q-2.806,7.57-5.378,14.78t-5.33,14.784h22.941Z" transform="translate(168.112 100.396)" fill="#fff" stroke="#fff" stroke-miterlimit="10" stroke-width="0.5"/>
    <path id="Caminho_17" data-name="Caminho 17" d="M206.851,98.881V161.1h-6.425V98.881H181.285V92.834h44.7v6.047Z" transform="translate(197.108 100.397)" fill="#fff" stroke="#fff" stroke-width="1"/>
    <path id="Caminho_18" data-name="Caminho 18" d="M206.851,98.881V161.1h-6.425V98.881H181.285V92.834h44.7v6.047Z" transform="translate(197.108 100.397)" fill="#fff" stroke="#fff" stroke-miterlimit="10" stroke-width="0.5"/>
    <path id="Caminho_19" data-name="Caminho 19" d="M255.677,133.634q0,28.607-24.515,28.609-23.421,0-23.422-27.611v-41.8h6.425v41.18q0,22.182,17.85,22.184,17.286,0,17.283-21.566v-41.8h6.379Z" transform="translate(226.256 100.396)" fill="#fff" stroke="#fff" stroke-width="1"/>
    <path id="Caminho_20" data-name="Caminho 20" d="M255.677,133.634q0,28.607-24.515,28.609-23.421,0-23.422-27.611v-41.8h6.425v41.18q0,22.182,17.85,22.184,17.286,0,17.283-21.566v-41.8h6.379Z" transform="translate(226.256 100.396)" fill="#fff" stroke="#fff" stroke-miterlimit="10" stroke-width="0.5"/>
    <path id="Caminho_21" data-name="Caminho 21" d="M271.6,161.1l-16.709-29.61H243.657V161.1h-6.473V92.834h19.372a24.034,24.034,0,0,1,8.239,1.333,18.211,18.211,0,0,1,6.234,3.714,15.813,15.813,0,0,1,3.93,5.736,19.65,19.65,0,0,1,1.355,7.4,20.755,20.755,0,0,1-1.047,6.736,17.984,17.984,0,0,1-3,5.5,17.757,17.757,0,0,1-4.786,4.117,22.788,22.788,0,0,1-6.448,2.547q2.138,3.758,4.4,7.711t4.546,7.926l4.544,7.9q2.26,3.925,4.357,7.64ZM243.657,98.881v26.611h10.473a20.41,20.41,0,0,0,6.45-.952,13.662,13.662,0,0,0,4.9-2.762,12.4,12.4,0,0,0,3.142-4.4,14.754,14.754,0,0,0,1.118-5.881q0-6-3.712-9.307t-10.9-3.306Z" transform="translate(258.697 100.396)" fill="#fff" stroke="#fff" stroke-width="1"/>
    <path id="Caminho_22" data-name="Caminho 22" d="M271.6,161.1l-16.709-29.61H243.657V161.1h-6.473V92.834h19.372a24.034,24.034,0,0,1,8.239,1.333,18.211,18.211,0,0,1,6.234,3.714,15.813,15.813,0,0,1,3.93,5.736,19.65,19.65,0,0,1,1.355,7.4,20.755,20.755,0,0,1-1.047,6.736,17.984,17.984,0,0,1-3,5.5,17.757,17.757,0,0,1-4.786,4.117,22.788,22.788,0,0,1-6.448,2.547q2.138,3.758,4.4,7.711t4.546,7.926l4.544,7.9q2.26,3.925,4.357,7.64ZM243.657,98.881v26.611h10.473a20.41,20.41,0,0,0,6.45-.952,13.662,13.662,0,0,0,4.9-2.762,12.4,12.4,0,0,0,3.142-4.4,14.754,14.754,0,0,0,1.118-5.881q0-6-3.712-9.307t-10.9-3.306Z" transform="translate(258.697 100.396)" fill="#fff" stroke="#fff" stroke-miterlimit="10" stroke-width="0.5"/>
    <path id="Caminho_23" data-name="Caminho 23" d="M263.027,161.1V92.834h32.893v6.047H269.452v24.8h24.564v6H269.452V155.1h27.991v6Z" transform="translate(287.169 100.396)" fill="#fff" stroke="#fff" stroke-width="1"/>
    <path id="Caminho_24" data-name="Caminho 24" d="M263.027,161.1V92.834h32.893v6.047H269.452v24.8h24.564v6H269.452V155.1h27.991v6Z" transform="translate(287.169 100.396)" fill="#fff" stroke="#fff" stroke-miterlimit="10" stroke-width="0.5"/>
    <path id="Caminho_25" data-name="Caminho 25" d="M146.7,53.1v62.219h-6.425V53.1H121.138V47.058h44.7V53.1Z" transform="translate(130.84 49.96)" fill="#fff" stroke="#fff" stroke-width="1"/>
    <path id="Caminho_26" data-name="Caminho 26" d="M146.7,53.1v62.219h-6.425V53.1H121.138V47.058h44.7V53.1Z" transform="translate(130.84 49.96)" fill="#fff" stroke="#fff" stroke-miterlimit="10" stroke-width="0.5"/>
    <path id="Caminho_27" data-name="Caminho 27" d="M147.866,115.323V47.057h32.893V53.1H154.291v24.8h24.564v6H154.291v25.421h27.992v6Z" transform="translate(160.288 49.959)" fill="#fff" stroke="#fff" stroke-width="1"/>
    <path id="Caminho_28" data-name="Caminho 28" d="M147.866,115.323V47.057h32.893V53.1H154.291v24.8h24.564v6H154.291v25.421h27.992v6Z" transform="translate(160.288 49.959)" fill="#fff" stroke="#fff" stroke-miterlimit="10" stroke-width="0.5"/>
    <path id="Caminho_29" data-name="Caminho 29" d="M220.2,110.852a31.94,31.94,0,0,1-19.515,6.19,32.937,32.937,0,0,1-13.115-2.522,28.561,28.561,0,0,1-10.023-7.1A31.729,31.729,0,0,1,171.167,96.5a41.885,41.885,0,0,1-2.238-14.019A45.2,45.2,0,0,1,171.214,67.7a31.976,31.976,0,0,1,6.57-11.331,29.215,29.215,0,0,1,10.4-7.257,35.113,35.113,0,0,1,13.733-2.573,30.514,30.514,0,0,1,10.332,1.715,33.981,33.981,0,0,1,9,4.855l-3.382,5.379a26.83,26.83,0,0,0-7.735-4.426,26.048,26.048,0,0,0-9.023-1.524,24.372,24.372,0,0,0-10.259,2.142,23.811,23.811,0,0,0-8.094,6.022,28.452,28.452,0,0,0-5.332,9.284A35.505,35.505,0,0,0,175.5,81.956a37.671,37.671,0,0,0,1.787,11.972,26.762,26.762,0,0,0,5.046,9.139,22.246,22.246,0,0,0,7.9,5.858A25.146,25.146,0,0,0,200.584,111a26.284,26.284,0,0,0,16.425-5.383Z" transform="translate(183.495 49.387)" fill="#fff" stroke="#fff" stroke-width="1"/>
    <path id="Caminho_30" data-name="Caminho 30" d="M220.2,110.852a31.94,31.94,0,0,1-19.515,6.19,32.937,32.937,0,0,1-13.115-2.522,28.561,28.561,0,0,1-10.023-7.1A31.729,31.729,0,0,1,171.167,96.5a41.885,41.885,0,0,1-2.238-14.019A45.2,45.2,0,0,1,171.214,67.7a31.976,31.976,0,0,1,6.57-11.331,29.215,29.215,0,0,1,10.4-7.257,35.113,35.113,0,0,1,13.733-2.573,30.514,30.514,0,0,1,10.332,1.715,33.981,33.981,0,0,1,9,4.855l-3.382,5.379a26.83,26.83,0,0,0-7.735-4.426,26.048,26.048,0,0,0-9.023-1.524,24.372,24.372,0,0,0-10.259,2.142,23.811,23.811,0,0,0-8.094,6.022,28.452,28.452,0,0,0-5.332,9.284A35.505,35.505,0,0,0,175.5,81.956a37.671,37.671,0,0,0,1.787,11.972,26.762,26.762,0,0,0,5.046,9.139,22.246,22.246,0,0,0,7.9,5.858A25.146,25.146,0,0,0,200.584,111a26.284,26.284,0,0,0,16.425-5.383Z" transform="translate(183.495 49.387)" fill="#fff" stroke="#fff" stroke-miterlimit="10" stroke-width="0.5"/>
    <path id="Caminho_31" data-name="Caminho 31" d="M242.906,115.323V83.477H206.772v31.846H200.3V47.057h6.475V77.43h36.134V47.057h6.425v68.266Z" transform="translate(218.055 49.959)" fill="#fff" stroke="#fff" stroke-width="1"/>
    <path id="Caminho_32" data-name="Caminho 32" d="M242.906,115.323V83.477H206.772v31.846H200.3V47.057h6.475V77.43h36.134V47.057h6.425v68.266Z" transform="translate(218.055 49.959)" fill="#fff" stroke="#fff" stroke-miterlimit="10" stroke-width="0.5"/>
    <path id="Caminho_33" data-name="Caminho 33" d="M225.867,1.25v159.1c0,3.174-.147,6.305-.42,9.437v.063a107.968,107.968,0,0,1-1.513,11.455,113.56,113.56,0,0,1-5.338,18.874A112.338,112.338,0,0,1,2.343,176.118,114.771,114.771,0,0,1,1.25,160.355V70.819A69.571,69.571,0,0,1,70.819,1.25Z" transform="translate(-1.25 -0.51)" fill="none" stroke="#fff" stroke-miterlimit="10" stroke-width="6"/>
    <path id="Caminho_34" data-name="Caminho 34" d="M224.874,111.416a107.992,107.992,0,0,1-1.513,11.455,113.568,113.568,0,0,1-5.339,18.874A112.338,112.338,0,0,1,1.77,117.68L20.707,99.836l23.771-12.59,23.393-25.2,29.887,29.11,14.649,8.491,19.526-25.221,24.738-19.778.441-.357s.42.5,1.156,1.45c2.922,3.678,10.992,13.809,18.412,22.7.021.021.021.042.042.042,6.347,7.65,12.169,14.334,13.83,15.364.189.105.441.231.715.378,5.675,3.132,13.641,6.726,15.2,7.461C206.5,101.706,215.773,106.6,224.874,111.416Z" transform="translate(-0.677 57.929)" fill="none" stroke="#fff" stroke-miterlimit="10" stroke-width="6"/>
    <path id="Caminho_35" data-name="Caminho 35" d="M77.235,54.723,73.683,85.76l27.88,35.6,36.06,22.6" transform="translate(78.555 58.406)" fill="none" stroke="#fff" stroke-miterlimit="10" stroke-width="6"/>
    <path id="Caminho_36" data-name="Caminho 36" d="M59.948,58.46l1.776,23.277L49.292,89.5,45.74,110.835,8.673,154.487" transform="translate(6.928 62.523)" fill="none" stroke="#fff" stroke-linejoin="bevel" stroke-width="6"/>
    <path id="Caminho_37" data-name="Caminho 37" d="M1.756,113.227,20.723,95.788l23.771-12.6,23.4-25.207L97.778,87.085,126.2,104.523,165.254,141.4" transform="translate(-0.692 61.993)" fill="none" stroke="#fff" stroke-miterlimit="10" stroke-width="6"/>
    <path id="Caminho_38" data-name="Caminho 38" d="M96.819,29.924a34.671,34.671,0,1,1-49.032,0,34.672,34.672,0,0,1,49.032,0" transform="translate(38.834 19.895)" fill="#ffc000" stroke="#fff" stroke-width="6"/>
  </g>
</svg>
