<svg xmlns="http://www.w3.org/2000/svg" width="210.023" height="98.175" viewBox="0 0 210.023 98.175">
  <g id="Grupo_2" data-name="Grupo 2" transform="translate(1.5 1.24)">
    <path id="Caminho_1" data-name="Caminho 1" d="M135.545,25.357l-5.86-10.384h-3.94V25.357h-2.27V1.418h6.793a8.428,8.428,0,0,1,2.889.467,6.387,6.387,0,0,1,2.186,1.3A5.545,5.545,0,0,1,136.723,5.2a6.889,6.889,0,0,1,.475,2.6,7.277,7.277,0,0,1-.367,2.362,6.307,6.307,0,0,1-1.052,1.929A6.228,6.228,0,0,1,134.1,13.53a7.994,7.994,0,0,1-2.261.893q.75,1.318,1.544,2.7t1.594,2.779l1.594,2.771q.793,1.376,1.528,2.679Zm-9.8-21.819V12.87h3.673a7.158,7.158,0,0,0,2.262-.334,4.792,4.792,0,0,0,1.72-.968,4.348,4.348,0,0,0,1.1-1.544,5.174,5.174,0,0,0,.392-2.062,4.146,4.146,0,0,0-1.3-3.264,5.585,5.585,0,0,0-3.823-1.159Z" transform="translate(-33.39 -1.035)" fill="#fff" stroke="#fff" stroke-width="1"/>
    <path id="Caminho_2" data-name="Caminho 2" d="M135.545,25.357l-5.86-10.384h-3.94V25.357h-2.27V1.418h6.793a8.428,8.428,0,0,1,2.889.467,6.387,6.387,0,0,1,2.186,1.3A5.545,5.545,0,0,1,136.723,5.2a6.889,6.889,0,0,1,.475,2.6,7.277,7.277,0,0,1-.367,2.362,6.307,6.307,0,0,1-1.052,1.929A6.228,6.228,0,0,1,134.1,13.53a7.994,7.994,0,0,1-2.261.893q.75,1.318,1.544,2.7t1.594,2.779l1.594,2.771q.793,1.376,1.528,2.679Zm-9.8-21.819V12.87h3.673a7.158,7.158,0,0,0,2.262-.334,4.792,4.792,0,0,0,1.72-.968,4.348,4.348,0,0,0,1.1-1.544,5.174,5.174,0,0,0,.392-2.062,4.146,4.146,0,0,0-1.3-3.264,5.585,5.585,0,0,0-3.823-1.159Z" transform="translate(-33.39 -1.035)" fill="#fff" stroke="#fff" stroke-miterlimit="10" stroke-width="0.5"/>
    <path id="Caminho_3" data-name="Caminho 3" d="M149.318,25.358V1.418h11.535v2.12h-9.282v8.7h8.614v2.1h-8.614v8.915h9.816v2.1Z" transform="translate(-40.185 -1.035)" fill="#fff" stroke="#fff" stroke-width="1"/>
    <path id="Caminho_4" data-name="Caminho 4" d="M149.318,25.358V1.418h11.535v2.12h-9.282v8.7h8.614v2.1h-8.614v8.915h9.816v2.1Z" transform="translate(-40.185 -1.035)" fill="#fff" stroke="#fff" stroke-miterlimit="10" stroke-width="0.5"/>
    <path id="Caminho_5" data-name="Caminho 5" d="M191.129,25.357V6.793q-2.12,4.642-4.248,9.29t-4.232,9.274h-.935L173.082,6.493V25.357h-2.137V1.418h2l8.8,18.948a6.038,6.038,0,0,1,.216.576,6.285,6.285,0,0,0,.251.643q.067-.184.184-.517t.3-.8l8.648-18.848h1.969V25.357Z" transform="translate(-45.872 -1.035)" fill="#fff" stroke="#fff" stroke-width="1"/>
    <path id="Caminho_6" data-name="Caminho 6" d="M191.129,25.357V6.793q-2.12,4.642-4.248,9.29t-4.232,9.274h-.935L173.082,6.493V25.357h-2.137V1.418h2l8.8,18.948a6.038,6.038,0,0,1,.216.576,6.285,6.285,0,0,0,.251.643q.067-.184.184-.517t.3-.8l8.648-18.848h1.969V25.357Z" transform="translate(-45.872 -1.035)" fill="#fff" stroke="#fff" stroke-miterlimit="10" stroke-width="0.5"/>
    <path id="Caminho_7" data-name="Caminho 7" d="M219.1,25.622a11.5,11.5,0,0,1-4.591-.884A10.021,10.021,0,0,1,211,22.25a11.135,11.135,0,0,1-2.238-3.832,14.725,14.725,0,0,1-.784-4.916,15.845,15.845,0,0,1,.8-5.183,11.205,11.205,0,0,1,2.3-3.973A10.258,10.258,0,0,1,214.73,1.8a12.328,12.328,0,0,1,4.817-.9,10.86,10.86,0,0,1,4.407.876,9.921,9.921,0,0,1,3.43,2.454,11.2,11.2,0,0,1,2.221,3.79A14.39,14.39,0,0,1,230.4,12.9a16.384,16.384,0,0,1-.8,5.293,11.471,11.471,0,0,1-2.279,4.007,9.892,9.892,0,0,1-3.563,2.537,11.832,11.832,0,0,1-4.659.884M219.263,3a8.557,8.557,0,0,0-3.6.75,8.362,8.362,0,0,0-2.838,2.112,9.974,9.974,0,0,0-1.87,3.256,12.431,12.431,0,0,0-.676,4.2,13.4,13.4,0,0,0,.618,4.2,9.2,9.2,0,0,0,1.77,3.205,7.91,7.91,0,0,0,2.77,2.054,8.774,8.774,0,0,0,3.623.726,9.578,9.578,0,0,0,3.765-.71,7.769,7.769,0,0,0,2.846-2.037,9.117,9.117,0,0,0,1.795-3.247,14.051,14.051,0,0,0,.626-4.357,13.646,13.646,0,0,0-.618-4.257,9.033,9.033,0,0,0-1.77-3.2,7.636,7.636,0,0,0-2.788-2A9.28,9.28,0,0,0,219.263,3" transform="translate(-55.61 -0.898)" fill="#fff" stroke="#fff" stroke-width="1"/>
    <path id="Caminho_8" data-name="Caminho 8" d="M219.1,25.622a11.5,11.5,0,0,1-4.591-.884A10.021,10.021,0,0,1,211,22.25a11.135,11.135,0,0,1-2.238-3.832,14.725,14.725,0,0,1-.784-4.916,15.845,15.845,0,0,1,.8-5.183,11.205,11.205,0,0,1,2.3-3.973A10.258,10.258,0,0,1,214.73,1.8a12.328,12.328,0,0,1,4.817-.9,10.86,10.86,0,0,1,4.407.876,9.921,9.921,0,0,1,3.43,2.454,11.2,11.2,0,0,1,2.221,3.79A14.39,14.39,0,0,1,230.4,12.9a16.384,16.384,0,0,1-.8,5.293,11.471,11.471,0,0,1-2.279,4.007,9.892,9.892,0,0,1-3.563,2.537A11.832,11.832,0,0,1,219.1,25.622ZM219.263,3a8.557,8.557,0,0,0-3.6.75,8.362,8.362,0,0,0-2.838,2.112,9.974,9.974,0,0,0-1.87,3.256,12.431,12.431,0,0,0-.676,4.2,13.4,13.4,0,0,0,.618,4.2,9.2,9.2,0,0,0,1.77,3.205,7.91,7.91,0,0,0,2.77,2.054,8.774,8.774,0,0,0,3.623.726,9.578,9.578,0,0,0,3.765-.71,7.769,7.769,0,0,0,2.846-2.037,9.117,9.117,0,0,0,1.795-3.247,14.051,14.051,0,0,0,.626-4.357,13.646,13.646,0,0,0-.618-4.257,9.033,9.033,0,0,0-1.77-3.2,7.636,7.636,0,0,0-2.788-2A9.28,9.28,0,0,0,219.263,3Z" transform="translate(-55.61 -0.898)" fill="#fff" stroke="#fff" stroke-miterlimit="10" stroke-width="0.5"/>
    <path id="Caminho_9" data-name="Caminho 9" d="M249.351,3.539V25.358H247.1V3.539h-6.712V1.418h15.676v2.12Z" transform="translate(-64.132 -1.035)" fill="#fff" stroke="#fff" stroke-width="1"/>
    <path id="Caminho_10" data-name="Caminho 10" d="M249.351,3.539V25.358H247.1V3.539h-6.712V1.418h15.676v2.12Z" transform="translate(-64.132 -1.035)" fill="#fff" stroke="#fff" stroke-miterlimit="10" stroke-width="0.5"/>
    <path id="Caminho_11" data-name="Caminho 11" d="M267.115,25.358V1.418h11.535v2.12h-9.282v8.7h8.614v2.1h-8.614v8.915h9.816v2.1Z" transform="translate(-71.16 -1.035)" fill="#fff" stroke="#fff" stroke-width="1"/>
    <path id="Caminho_12" data-name="Caminho 12" d="M267.115,25.358V1.418h11.535v2.12h-9.282v8.7h8.614v2.1h-8.614v8.915h9.816v2.1Z" transform="translate(-71.16 -1.035)" fill="#fff" stroke="#fff" stroke-miterlimit="10" stroke-width="0.5"/>
    <path id="Caminho_13" data-name="Caminho 13" d="M141.062,116.773,127.088,97.826v.016a2.367,2.367,0,0,1-.2-.276q-.1-.158-.2-.308v19.515h-2.252V92.834h1.719l13.873,18.8a3.141,3.141,0,0,0,.192.275c.072.1.147.2.224.326-.01-.167-.016-.32-.016-.459V92.834h2.255v23.939Z" transform="translate(-33.642 -25.073)" fill="#fff" stroke="#fff" stroke-width="1"/>
    <path id="Caminho_14" data-name="Caminho 14" d="M141.062,116.773,127.088,97.826v.016a2.367,2.367,0,0,1-.2-.276q-.1-.158-.2-.308v19.515h-2.252V92.834h1.719l13.873,18.8a3.141,3.141,0,0,0,.192.275c.072.1.147.2.224.326-.01-.167-.016-.32-.016-.459V92.834h2.255v23.939Z" transform="translate(-33.642 -25.073)" fill="#fff" stroke="#fff" stroke-miterlimit="10" stroke-width="0.5"/>
    <path id="Caminho_15" data-name="Caminho 15" d="M172.412,116.773l-2.655-7.245h-9.649q-.652,1.77-1.344,3.631t-1.327,3.614h-2.471L164,92.834h1.987l8.931,23.939Zm-7.228-19.7.016.017c-.055-.133-.1-.265-.142-.392s-.081-.265-.126-.409q-.083.233-.15.417c-.045.123-.084.234-.117.334q-.984,2.654-1.886,5.183t-1.869,5.184h8.045Z" transform="translate(-41.671 -25.073)" fill="#fff" stroke="#fff" stroke-width="1"/>
    <path id="Caminho_16" data-name="Caminho 16" d="M172.412,116.773l-2.655-7.245h-9.649q-.652,1.77-1.344,3.631t-1.327,3.614h-2.471L164,92.834h1.987l8.931,23.939Zm-7.228-19.7.016.017c-.055-.133-.1-.265-.142-.392s-.081-.265-.126-.409q-.083.233-.15.417c-.045.123-.084.234-.117.334q-.984,2.654-1.886,5.183t-1.869,5.184h8.045Z" transform="translate(-41.671 -25.073)" fill="#fff" stroke="#fff" stroke-miterlimit="10" stroke-width="0.5"/>
    <path id="Caminho_17" data-name="Caminho 17" d="M190.25,94.955v21.819H188V94.955h-6.712v-2.12h15.676v2.12Z" transform="translate(-48.591 -25.073)" fill="#fff" stroke="#fff" stroke-width="1"/>
    <path id="Caminho_18" data-name="Caminho 18" d="M190.25,94.955v21.819H188V94.955h-6.712v-2.12h15.676v2.12Z" transform="translate(-48.591 -25.073)" fill="#fff" stroke="#fff" stroke-miterlimit="10" stroke-width="0.5"/>
    <path id="Caminho_19" data-name="Caminho 19" d="M224.551,107.142q0,10.032-8.6,10.033-8.213,0-8.214-9.683V92.834h2.253v14.441q0,7.779,6.26,7.78,6.062,0,6.061-7.563V92.834h2.237Z" transform="translate(-55.548 -25.073)" fill="#fff" stroke="#fff" stroke-width="1"/>
    <path id="Caminho_20" data-name="Caminho 20" d="M224.551,107.142q0,10.032-8.6,10.033-8.213,0-8.214-9.683V92.834h2.253v14.441q0,7.779,6.26,7.78,6.062,0,6.061-7.563V92.834h2.237Z" transform="translate(-55.548 -25.073)" fill="#fff" stroke="#fff" stroke-miterlimit="10" stroke-width="0.5"/>
    <path id="Caminho_21" data-name="Caminho 21" d="M249.253,116.773l-5.859-10.383h-3.94v10.383h-2.27V92.834h6.793a8.428,8.428,0,0,1,2.889.467,6.386,6.386,0,0,1,2.186,1.3,5.545,5.545,0,0,1,1.378,2.011,6.891,6.891,0,0,1,.475,2.6,7.279,7.279,0,0,1-.367,2.362,6.307,6.307,0,0,1-1.052,1.929,6.227,6.227,0,0,1-1.678,1.444,7.991,7.991,0,0,1-2.261.893q.75,1.318,1.544,2.7t1.594,2.779l1.593,2.771q.793,1.376,1.528,2.679Zm-9.8-21.819v9.332h3.673a7.157,7.157,0,0,0,2.262-.334,4.791,4.791,0,0,0,1.72-.968,4.349,4.349,0,0,0,1.1-1.544,5.174,5.174,0,0,0,.392-2.062,4.146,4.146,0,0,0-1.3-3.264,5.585,5.585,0,0,0-3.823-1.159Z" transform="translate(-63.29 -25.073)" fill="#fff" stroke="#fff" stroke-width="1"/>
    <path id="Caminho_22" data-name="Caminho 22" d="M249.253,116.773l-5.859-10.383h-3.94v10.383h-2.27V92.834h6.793a8.428,8.428,0,0,1,2.889.467,6.386,6.386,0,0,1,2.186,1.3,5.545,5.545,0,0,1,1.378,2.011,6.891,6.891,0,0,1,.475,2.6,7.279,7.279,0,0,1-.367,2.362,6.307,6.307,0,0,1-1.052,1.929,6.227,6.227,0,0,1-1.678,1.444,7.991,7.991,0,0,1-2.261.893q.75,1.318,1.544,2.7t1.594,2.779l1.593,2.771q.793,1.376,1.528,2.679Zm-9.8-21.819v9.332h3.673a7.157,7.157,0,0,0,2.262-.334,4.791,4.791,0,0,0,1.72-.968,4.349,4.349,0,0,0,1.1-1.544,5.174,5.174,0,0,0,.392-2.062,4.146,4.146,0,0,0-1.3-3.264,5.585,5.585,0,0,0-3.823-1.159Z" transform="translate(-63.29 -25.073)" fill="#fff" stroke="#fff" stroke-miterlimit="10" stroke-width="0.5"/>
    <path id="Caminho_23" data-name="Caminho 23" d="M263.027,116.774V92.834h11.535v2.12H265.28v8.7h8.614v2.1H265.28v8.915H275.1v2.1Z" transform="translate(-70.085 -25.073)" fill="#fff" stroke="#fff" stroke-width="1"/>
    <path id="Caminho_24" data-name="Caminho 24" d="M263.027,116.774V92.834h11.535v2.12H265.28v8.7h8.614v2.1H265.28v8.915H275.1v2.1Z" transform="translate(-70.085 -25.073)" fill="#fff" stroke="#fff" stroke-miterlimit="10" stroke-width="0.5"/>
    <path id="Caminho_25" data-name="Caminho 25" d="M130.1,49.178V71h-2.253V49.178h-6.712v-2.12h15.676v2.12Z" transform="translate(-32.775 -13.036)" fill="#fff" stroke="#fff" stroke-width="1"/>
    <path id="Caminho_26" data-name="Caminho 26" d="M130.1,49.178V71h-2.253V49.178h-6.712v-2.12h15.676v2.12Z" transform="translate(-32.775 -13.036)" fill="#fff" stroke="#fff" stroke-miterlimit="10" stroke-width="0.5"/>
    <path id="Caminho_27" data-name="Caminho 27" d="M147.866,71V47.058H159.4v2.12h-9.282v8.7h8.614v2.1h-8.614v8.915h9.816V71Z" transform="translate(-39.803 -13.036)" fill="#fff" stroke="#fff" stroke-width="1"/>
    <path id="Caminho_28" data-name="Caminho 28" d="M147.866,71V47.058H159.4v2.12h-9.282v8.7h8.614v2.1h-8.614v8.915h9.816V71Z" transform="translate(-39.803 -13.036)" fill="#fff" stroke="#fff" stroke-miterlimit="10" stroke-width="0.5"/>
    <path id="Caminho_29" data-name="Caminho 29" d="M186.908,69.091a11.2,11.2,0,0,1-6.843,2.171,11.55,11.55,0,0,1-4.6-.884,10.016,10.016,0,0,1-3.515-2.488,11.127,11.127,0,0,1-2.236-3.831,14.688,14.688,0,0,1-.785-4.916,15.851,15.851,0,0,1,.8-5.184,11.213,11.213,0,0,1,2.3-3.973,10.245,10.245,0,0,1,3.647-2.545,12.313,12.313,0,0,1,4.816-.9,10.7,10.7,0,0,1,3.623.6,11.916,11.916,0,0,1,3.156,1.7l-1.186,1.886a9.409,9.409,0,0,0-2.712-1.552,9.135,9.135,0,0,0-3.164-.534,8.547,8.547,0,0,0-3.6.751,8.35,8.35,0,0,0-2.838,2.112,9.977,9.977,0,0,0-1.87,3.256,12.451,12.451,0,0,0-.676,4.2,13.21,13.21,0,0,0,.627,4.2,9.385,9.385,0,0,0,1.77,3.2,7.8,7.8,0,0,0,2.771,2.054,8.818,8.818,0,0,0,3.63.727,9.217,9.217,0,0,0,5.76-1.888Z" transform="translate(-45.342 -12.899)" fill="#fff" stroke="#fff" stroke-width="1"/>
    <path id="Caminho_30" data-name="Caminho 30" d="M186.908,69.091a11.2,11.2,0,0,1-6.843,2.171,11.55,11.55,0,0,1-4.6-.884,10.016,10.016,0,0,1-3.515-2.488,11.127,11.127,0,0,1-2.236-3.831,14.688,14.688,0,0,1-.785-4.916,15.851,15.851,0,0,1,.8-5.184,11.213,11.213,0,0,1,2.3-3.973,10.245,10.245,0,0,1,3.647-2.545,12.313,12.313,0,0,1,4.816-.9,10.7,10.7,0,0,1,3.623.6,11.916,11.916,0,0,1,3.156,1.7l-1.186,1.886a9.409,9.409,0,0,0-2.712-1.552,9.135,9.135,0,0,0-3.164-.534,8.547,8.547,0,0,0-3.6.751,8.35,8.35,0,0,0-2.838,2.112,9.977,9.977,0,0,0-1.87,3.256,12.451,12.451,0,0,0-.676,4.2,13.21,13.21,0,0,0,.627,4.2,9.385,9.385,0,0,0,1.77,3.2,7.8,7.8,0,0,0,2.771,2.054,8.818,8.818,0,0,0,3.63.727,9.217,9.217,0,0,0,5.76-1.888Z" transform="translate(-45.342 -12.899)" fill="#fff" stroke="#fff" stroke-miterlimit="10" stroke-width="0.5"/>
    <path id="Caminho_31" data-name="Caminho 31" d="M215.238,71V59.829H202.567V71H200.3V47.058h2.271V57.709h12.671V47.058h2.253V71Z" transform="translate(-53.59 -13.036)" fill="#fff" stroke="#fff" stroke-width="1"/>
    <path id="Caminho_32" data-name="Caminho 32" d="M215.238,71V59.829H202.567V71H200.3V47.058h2.271V57.709h12.671V47.058h2.253V71Z" transform="translate(-53.59 -13.036)" fill="#fff" stroke="#fff" stroke-miterlimit="10" stroke-width="0.5"/>
    <path id="Caminho_33" data-name="Caminho 33" d="M80.018,1.25V57.044c0,1.113-.052,2.211-.147,3.309v.022a37.863,37.863,0,0,1-.531,4.017,39.823,39.823,0,0,1-1.872,6.619A39.394,39.394,0,0,1,1.633,62.572a40.248,40.248,0,0,1-.383-5.528v-31.4a24.4,24.4,0,0,1,24.4-24.4Z" transform="translate(-1.25 -0.99)" fill="none" stroke="#fff" stroke-miterlimit="10" stroke-width="3"/>
    <path id="Caminho_34" data-name="Caminho 34" d="M80.007,74.323a37.868,37.868,0,0,1-.531,4.017A39.825,39.825,0,0,1,77.6,84.959,39.394,39.394,0,0,1,1.77,76.519l6.641-6.258,8.336-4.415,8.2-8.837L35.431,67.218,40.568,70.2l6.847-8.845,8.675-6.936.155-.125s.147.177.405.509c1.025,1.29,3.855,4.842,6.457,7.96.007.007.007.015.015.015a48.371,48.371,0,0,0,4.85,5.388c.066.037.155.081.251.133,1.99,1.1,4.783,2.359,5.329,2.617C73.566,70.918,76.816,72.635,80.007,74.323Z" transform="translate(-1.387 -14.938)" fill="none" stroke="#fff" stroke-miterlimit="10" stroke-width="2"/>
    <path id="Caminho_35" data-name="Caminho 35" d="M74.929,54.723,73.683,65.607,83.46,78.09l12.645,7.924" transform="translate(-20.297 -15.051)" fill="none" stroke="#fff" stroke-miterlimit="10" stroke-width="2"/>
    <path id="Caminho_36" data-name="Caminho 36" d="M26.654,58.46l.623,8.163-4.36,2.721-1.246,7.482-13,15.308" transform="translate(-3.202 -16.034)" fill="none" stroke="#fff" stroke-linejoin="bevel" stroke-width="2"/>
    <path id="Caminho_37" data-name="Caminho 37" d="M1.756,77.353l6.651-6.115,8.336-4.419,8.2-8.839L35.429,68.186,45.395,74.3l13.7,12.931" transform="translate(-1.383 -15.908)" fill="none" stroke="#fff" stroke-miterlimit="10" stroke-width="2"/>
    <path id="Caminho_38" data-name="Caminho 38" d="M58.387,23.331a12.158,12.158,0,1,1-17.195,0,12.159,12.159,0,0,1,17.195,0" transform="translate(-10.817 -5.86)" fill="#ffc000" stroke="#fff" stroke-width="2"/>
  </g>
</svg>
