<svg xmlns="http://www.w3.org/2000/svg" xmlns:xlink="http://www.w3.org/1999/xlink" width="168" height="192" viewBox="0 0 168 192">
  <defs>
    <clipPath id="clip-path">
      <rect id="Retângulo_284" data-name="Retângulo 284" width="168" height="192" transform="translate(10623 3776)" fill="#fff" stroke="#707070" stroke-width="1"/>
    </clipPath>
  </defs>
  <g id="Grupo_de_máscara_30" data-name="Grupo de máscara 30" transform="translate(-10623 -3776)" clip-path="url(#clip-path)">
    <path id="Subtração_1" data-name="Subtração 1" d="M48,259.161H0a193.518,193.518,0,0,1,4.26-19.916,136.04,136.04,0,0,1,5.866-17.132A97.116,97.116,0,0,1,17.6,207.762a73.079,73.079,0,0,1,9.084-11.572,69.3,69.3,0,0,1,10.525-8.9,63.692,63.692,0,0,1,11.8-6.36,66.725,66.725,0,0,1,13.068-3.817,78.791,78.791,0,0,1,14.34-1.273,63.262,63.262,0,0,1,22.075,3.648,156.019,156.019,0,0,1,22.468,10.945,129.061,129.061,0,0,0,15.733,8.061,35.09,35.09,0,0,0,13.436,2.688c7.439,0,13.284-2.492,17.373-7.406v62.483a75.079,75.079,0,0,1-20.821,2.9h-.755a68.161,68.161,0,0,1-11.466-.986,53.6,53.6,0,0,1-10.25-2.849,202.823,202.823,0,0,1-22.452-10.75,173.245,173.245,0,0,0-15.935-8.068,33.881,33.881,0,0,0-13.248-2.688c-13.757,0-22.025,8.526-24.576,25.341Z" transform="translate(10623 3708.5)" fill="#e44200"/>
    <path id="Subtração_2" data-name="Subtração 2" d="M48,259.161H0a193.518,193.518,0,0,1,4.26-19.916,136.04,136.04,0,0,1,5.866-17.132A97.116,97.116,0,0,1,17.6,207.762a73.079,73.079,0,0,1,9.084-11.572,69.3,69.3,0,0,1,10.525-8.9,63.692,63.692,0,0,1,11.8-6.36,66.725,66.725,0,0,1,13.068-3.817,78.791,78.791,0,0,1,14.34-1.273,63.262,63.262,0,0,1,22.075,3.648,156.019,156.019,0,0,1,22.468,10.945,129.061,129.061,0,0,0,15.733,8.061,35.09,35.09,0,0,0,13.436,2.688c7.439,0,13.284-2.492,17.373-7.406v62.483a75.079,75.079,0,0,1-20.821,2.9h-.755a68.161,68.161,0,0,1-11.466-.986,53.6,53.6,0,0,1-10.25-2.849,202.823,202.823,0,0,1-22.452-10.75,173.245,173.245,0,0,0-15.935-8.068,33.881,33.881,0,0,0-13.248-2.688c-13.757,0-22.025,8.526-24.576,25.341Z" transform="translate(10623 3600.159)" fill="#e44200"/>
  </g>
</svg>
