<svg id="Layer_1" data-name="Layer 1" xmlns="http://www.w3.org/2000/svg" xmlns:xlink="http://www.w3.org/1999/xlink" viewBox="0 0 1920 1080"><defs><style>.cls-1{fill:none;}.cls-2{fill:#e44211;}.cls-3,.cls-5,.cls-6,.cls-7,.cls-8{isolation:isolate;}.cls-10,.cls-3{opacity:0.7;}.cls-3{fill:url(#radial-gradient);}.cls-4{fill:url(#radial-gradient-2);}.cls-11,.cls-5,.cls-8{opacity:0.4;}.cls-5{fill:url(#radial-gradient-3);}.cls-6{opacity:0.3;fill:url(#radial-gradient-4);}.cls-7{opacity:0.5;fill:url(#radial-gradient-5);}.cls-8{fill:#d3d3d3;}.cls-9{clip-path:url(#clip-path);}.cls-12{clip-path:url(#clip-path-2);}</style><radialGradient id="radial-gradient" cx="1242.85" cy="-9637.05" r="134.2" gradientTransform="matrix(1, 0, 0, -1, 0, -9342)" gradientUnits="userSpaceOnUse"><stop offset="0.14" stop-color="#fff" stop-opacity="0.1"/><stop offset="0.99" stop-color="#d5d2d9" stop-opacity="0.05"/></radialGradient><radialGradient id="radial-gradient-2" cx="1235.17" cy="-9623.32" fx="1218.3422557585848" r="97.86" gradientTransform="matrix(1, 0, 0, -1, 0, -9342)" gradientUnits="userSpaceOnUse"><stop offset="0" stop-color="#fff"/><stop offset="0.67" stop-color="#ededed"/><stop offset="1" stop-color="#e2e2e2"/></radialGradient><radialGradient id="radial-gradient-3" cx="1243.75" cy="-9635.5" fx="1243.7468878563432" r="85.15" xlink:href="#radial-gradient-2"/><radialGradient id="radial-gradient-4" cx="1903.88" cy="-9394.59" fx="1903.880576837526" r="63.17" gradientTransform="matrix(1, 0.08, 0.08, -1, 84.85, -9242.74)" xlink:href="#radial-gradient-2"/><radialGradient id="radial-gradient-5" cx="1217.5" cy="-9597.46" fx="1217.496887856345" r="40.39" xlink:href="#radial-gradient-2"/><clipPath id="clip-path"><rect class="cls-1" x="-2053.65" y="-2.75" width="1920" height="607"/></clipPath><clipPath id="clip-path-2"><rect class="cls-1" x="-2053.65" y="1125.25" width="1920" height="607"/></clipPath></defs><path class="cls-2" d="M944.35,654.25h.2c-.1,0-.2-.1-.2,0C943.35,654.15,943.35,654.25,944.35,654.25Z"/><path class="cls-2" d="M970.45,637.35h.2c-.1,0-.1-.1-.2,0C969.45,637.25,969.45,637.35,970.45,637.35Z"/><path class="cls-2" d="M1074.15,681c-.1,0-.1.1-.2.1.1,0,.1,0,.2-.1C1074.55,680.55,1074.55,680.45,1074.15,681Z"/><circle class="cls-3" cx="1242.85" cy="295.05" r="134.2"/><path class="cls-4" d="M1318.75,333.55a85.16,85.16,0,1,1-35.1-115.2A85.17,85.17,0,0,1,1318.75,333.55Z"/><path class="cls-5" d="M1221.25,211.35a75.87,75.87,0,1,1-32.4,17,5.72,5.72,0,0,0-.8.7,85.2,85.2,0,1,0,33.2-17.7Z"/><path class="cls-6" d="M1286.15,234.65c19.7,26.8,11.8,66-17.6,87.6s-69.2,17.3-88.8-9.5-11.8-66,17.7-87.6C1226.65,203.65,1266.45,207.85,1286.15,234.65Z"/><path class="cls-7" d="M1252.65,225.05c12,13.8,5.9,38.7-13.5,55.5s-44.9,19.2-56.8,5.4-5.9-38.7,13.5-55.5S1240.75,211.15,1252.65,225.05Z"/><path class="cls-8" d="M1189.15,337.25c1.1-4.2,9.7-4.2,16.9,1.1s4.9,12.9,0,14.2S1186.15,348.25,1189.15,337.25Z"/><path class="cls-8" d="M1268.35,354.65c-.7-3.8,3.2-8.6,9.6-10s12.3.7,13.2,6.5-6,11.3-11.4,9.7S1269.15,359.15,1268.35,354.65Z"/><path class="cls-8" d="M1206,361.15c.9-3.2,7.9-1,8,3.3S1205,364.65,1206,361.15Z"/><path class="cls-8" d="M1226.75,362.45c1.3,1.5,5.4,3.1,6.2-1.3S1222.55,357.65,1226.75,362.45Z"/><path class="cls-8" d="M1257,368.15c3,.4,7.3.5,7.9-3.5s-8.5-3.8-10.4-1.7S1254.25,367.85,1257,368.15Z"/><path class="cls-8" d="M1300.85,273.65c2,1.5,7.9,2,8.9-3.4s-5.6-7.7-8.9-6.6S1294.85,268.85,1300.85,273.65Z"/><path class="cls-8" d="M1291.25,246.65c2.2,1.9,10.4,3,12.3-.6s-3.2-8.4-9.9-8.9S1283.45,239.75,1291.25,246.65Z"/><path class="cls-8" d="M1240.85,235.25c2.7,1.9,10.6.7,11.3-3.8s-7.1-5.5-11.3-4S1235.85,231.75,1240.85,235.25Z"/><path class="cls-8" d="M1221.85,224.15c3,1.4,7.4,1,7.6-1.1s-2.6-3.4-5.7-3.1S1218.25,222.45,1221.85,224.15Z"/><path class="cls-8" d="M1183.45,242.55c.4-2.2,2.7-.4,2.8.7S1182.85,245.65,1183.45,242.55Z"/><path class="cls-8" d="M1188.75,271.05c-.7-1.9,2.3-1.4,2.4,0S1189.25,272.45,1188.75,271.05Z"/><path class="cls-8" d="M1181.05,315.25a2,2,0,0,0,3.6-1.5C1184.45,311.25,1180.05,313.55,1181.05,315.25Z"/><path class="cls-8" d="M1176.65,334.25c.4.7,2.6,1.5,2.7-.9S1175.65,332.55,1176.65,334.25Z"/><path class="cls-8" d="M1246.45,374.25a1.74,1.74,0,0,0,2.4-2.3C1248.35,370.25,1243.45,372.65,1246.45,374.25Z"/><path class="cls-8" d="M1239.55,373.65c1-1.1-1.7-1.5-2.7-.7S1238.25,375,1239.55,373.65Z"/><path class="cls-8" d="M1231.45,370c1.2.8,2.1.3,2.2-.7S1229.35,368.55,1231.45,370Z"/><path class="cls-8" d="M1243,347.75c-.3-.7,2.8-1.1,2.5,0S1243.55,349,1243,347.75Z"/><path class="cls-8" d="M1291.25,309.35c0-1.6,2.5-1.5,2.7,0S1291.25,311,1291.25,309.35Z"/><path class="cls-8" d="M1305,284.15c-.1-1.6,3-1.7,3.1,0S1305.05,285.75,1305,284.15Z"/><path class="cls-8" d="M1282.45,228.65c-.2-1.8,1.9-1.8,2.2,0S1282.55,229.55,1282.45,228.65Z"/><path class="cls-8" d="M1267.65,228.05c-1.7-1.2.8-2.2,1.9-1.3S1269.45,229.35,1267.65,228.05Z"/><path class="cls-8" d="M1253.55,221.35c-1.1-.5.3-2.6,1.7-1.6S1254.65,222,1253.55,221.35Z"/><path class="cls-8" d="M1246,215.45c-1.1-1.3,1.4-1,2.2-.5S1247.75,217.55,1246,215.45Z"/><path class="cls-8" d="M1264.45,219.55c-1.1-2.2,1.7-.6,1.5,0S1264.45,219.55,1264.45,219.55Z"/><path class="cls-8" d="M1246.15,219.85c-1-.8.8-.8.9,0S1246.15,219.85,1246.15,219.85Z"/><path class="cls-8" d="M1230,220.65c-.5-.4.7-1.3,1.3-.6S1230.85,221.35,1230,220.65Z"/><path class="cls-8" d="M1210.45,233.65c-1-.8,1.9-1.8,3-.7S1212,234.85,1210.45,233.65Z"/></svg>