<svg id="Layer_1" data-name="Layer 1" xmlns="http://www.w3.org/2000/svg" viewBox="0 0 1920 1080"><defs><style>.cls-1{fill:#ce310d;}.cls-2{fill:#fff;}.cls-3{fill:#6e9078;}.cls-4{fill:#e44211;}</style></defs><path class="cls-1" d="M1893.7,28.3c.2,0,.3.1.5.1a.75.75,0,0,0-.5-.1Z"/><path class="cls-1" d="M1837.2,42c.2,0,.3.1.5.1a.75.75,0,0,0-.5-.1Z"/><path class="cls-1" d="M1864.7,28.3c.2,0,.3.1.5.1a.75.75,0,0,0-.5-.1Z"/><path class="cls-1" d="M1808.2,42c.2,0,.3.1.5.1a.75.75,0,0,0-.5-.1Z"/><path class="cls-1" d="M1917.4,41.7c-.2.1-.4.1-.6.2.2-.1.5-.2.7-.3A.1.1,0,0,1,1917.4,41.7Z"/><path class="cls-1" d="M406.17,93c-.2.1-.4.1-.6.2.2-.1.5-.2.7-.3A.1.1,0,0,0,406.17,93Z"/><path class="cls-1" d="M349.67,106.74c-.2.1-.4.1-.6.2.2-.1.5-.2.7-.3A.1.1,0,0,0,349.67,106.74Z"/><path class="cls-1" d="M140.47,96.94c.2.1.4.1.6.2-.2-.1-.5-.2-.7-.3Z"/><path class="cls-1" d="M463.07,86c-.2,0-.3.1-.5.1a1.09,1.09,0,0,1,.5-.1Z"/><path class="cls-1" d="M550.87,113.14c.2.1.4.1.6.2-.2-.1-.5-.2-.7-.3Z"/><path class="cls-1" d="M873.47,102.24c-.2,0-.3.1-.5.1a.75.75,0,0,0,.5-.1Z"/><path class="cls-1" d="M643.67,74.94c.2.1.4.1.6.2-.2-.1-.5-.2-.7-.3C643.67,74.84,643.67,74.84,643.67,74.94Z"/><path class="cls-1" d="M966.37,64c-.2,0-.3.1-.5.1a.9.9,0,0,1,.5-.1Z"/><path class="cls-1" d="M1818.57,84.64c.2,0,.3.1.5.1a.75.75,0,0,1-.5-.1Z"/><path class="cls-1" d="M332.87,159.84c.2.1.4.1.6.2-.2-.1-.5-.2-.7-.3A.1.1,0,0,0,332.87,159.84Z"/><path class="cls-1" d="M1481.37,210.84c-.2.1-.4.1-.6.2.2-.1.5-.2.7-.3A.1.1,0,0,0,1481.37,210.84Z"/><path class="cls-1" d="M1158.67,199.94c.2,0,.3.1.5.1a.9.9,0,0,1-.5-.1C1157.67,200,1157.67,199.94,1158.67,199.94Z"/><path class="cls-1" d="M1080.57,210.84c-.2.1-.4.1-.6.2.2-.1.5-.2.7-.3A.1.1,0,0,0,1080.57,210.84Z"/><path class="cls-1" d="M757.87,199.94a4.33,4.33,0,0,1,.5.1.9.9,0,0,1-.5-.1C756.87,200,756.87,199.94,757.87,199.94Z"/><path class="cls-2" d="M1222.07,419.14c-167.7-2.7-305.5-85.8-507.5-99.6-129.9-8.8-267.9,24.7-403.1,21.7-110.3-2.4-210.8-23.8-310.8-15.5v706.6h1926.4V355.74C1486.07,346.94,1394.67,421.94,1222.07,419.14Z"/><path class="cls-3" d="M1222.47,418.94c-167.8-2.7-305.6-85.8-507.6-99.6-130-8.8-268,24.7-403.2,21.7-110.3-2.4-210.8-23.8-310.9-15.5v706.6h1926.8V355.44C1486.57,346.64,1395.07,421.64,1222.47,418.94Z"/><path class="cls-4" d="M947.67,651.94h.2c-.1,0-.2-.1-.2,0C946.67,651.84,946.67,651.94,947.67,651.94Z"/><path class="cls-4" d="M973.77,635h.2c-.1,0-.1-.1-.2,0C972.77,634.94,972.77,635,973.77,635Z"/><path class="cls-4" d="M1077.47,678.64c-.1,0-.1.1-.2.1.1,0,.1,0,.2-.1C1077.87,678.24,1077.87,678.14,1077.47,678.64Z"/><path class="cls-1" d="M1870.47,27.14c.2,0,.3.1.5.1a.75.75,0,0,0-.5-.1Z"/><path class="cls-1" d="M1814,40.84c.2,0,.3.1.5.1a.75.75,0,0,0-.5-.1Z"/><rect class="cls-3" y="781" width="1928" height="395"/></svg>