<svg id="Layer_1" data-name="Layer 1" xmlns="http://www.w3.org/2000/svg" xmlns:xlink="http://www.w3.org/1999/xlink" viewBox="0 0 1920 349"><defs><style>.cls-1{fill:none;}.cls-2{fill:#ce310d;}.cls-3{fill:url(#linear-gradient);}.cls-4{clip-path:url(#clip-path);}.cls-5{opacity:0.7;}.cls-6{opacity:0.4;}</style><linearGradient id="linear-gradient" x1="964.38" y1="-6790.07" x2="952.51" y2="-4859.11" gradientTransform="matrix(1, 0, 0, -1, 0, -5810)" gradientUnits="userSpaceOnUse"><stop offset="0.32" stop-color="#fbb03b"/><stop offset="0.33" stop-color="#f9b03e"/><stop offset="0.35" stop-color="#e3b565"/><stop offset="0.38" stop-color="#d0b987"/><stop offset="0.41" stop-color="#c0bca2"/><stop offset="0.44" stop-color="#b4bfb8"/><stop offset="0.47" stop-color="#acc1c7"/><stop offset="0.51" stop-color="#a7c2cf"/><stop offset="0.57" stop-color="#a5c2d2"/><stop offset="0.63" stop-color="#a5c2d2"/><stop offset="1" stop-color="#a5c2d2"/></linearGradient><clipPath id="clip-path"><rect class="cls-1" x="1.35" y="1763.25" width="1920" height="607"/></clipPath></defs><path class="cls-2" d="M1864.7,28.3c.2,0,.3.1.5.1a.75.75,0,0,0-.5-.1Z"/><path class="cls-2" d="M1808.2,42c.2,0,.3.1.5.1a.75.75,0,0,0-.5-.1Z"/><path class="cls-2" d="M1917.4,41.7c-.2.1-.4.1-.6.2.2-.1.5-.2.7-.3A.1.1,0,0,1,1917.4,41.7Z"/><rect class="cls-3" x="-5" y="-2" width="1931" height="702"/></svg>