<svg id="Layer_1" data-name="Layer 1" xmlns="http://www.w3.org/2000/svg" xmlns:xlink="http://www.w3.org/1999/xlink" viewBox="0 0 1920 1080"><defs><style>.cls-1{fill:url(#linear-gradient);}.cls-2{fill:#e44211;}.cls-3{fill:url(#linear-gradient-2);}</style><linearGradient id="linear-gradient" x1="967.37" y1="-10023.57" x2="1006.28" y2="-9400.9" gradientTransform="matrix(1, 0, 0, -1, 0, -9342)" gradientUnits="userSpaceOnUse"><stop offset="0" stop-color="#80788d"/><stop offset="0.55" stop-color="#6d7087"/><stop offset="1" stop-color="#5a6882"/></linearGradient><linearGradient id="linear-gradient-2" x1="-43" y1="1078.5" x2="1976" y2="1078.5" gradientUnits="userSpaceOnUse"><stop offset="0" stop-color="#80788d"/><stop offset="0.86" stop-color="#80788d"/><stop offset="1" stop-color="#80788d"/></linearGradient></defs><path class="cls-1" d="M1533.75,476.65c-159.3-20.1-115.2-61.5-527.8-21.8-142.8,13.7-177.2,34.1-268.8,34.2-171,.3-251-45.1-501.4,39-78.3,26.3-154.3,57.5-235.3,75.5v388.7h1919.3V441.55C1759.15,444.25,1691.35,496.45,1533.75,476.65Z"/><path class="cls-2" d="M941.35,654.25h.2c-.1,0-.2-.1-.2,0C940.35,654.15,940.35,654.25,941.35,654.25Z"/><path class="cls-2" d="M967.45,637.35h.2c-.1,0-.1-.1-.2,0C966.45,637.25,966.45,637.35,967.45,637.35Z"/><path class="cls-2" d="M1071.15,681c-.1,0-.1.1-.2.1.1,0,.1,0,.2-.1C1071.55,680.55,1071.55,680.45,1071.15,681Z"/><rect class="cls-3" x="-43" y="992" width="2019" height="173"/></svg>