<svg id="Layer_1" data-name="Layer 1" xmlns="http://www.w3.org/2000/svg" xmlns:xlink="http://www.w3.org/1999/xlink" viewBox="0 0 1920 1080"><defs><style>.cls-1{fill:#fff;}.cls-2{opacity:0.71;}.cls-3{fill:url(#linear-gradient);}.cls-4{fill:#e44211;}.cls-5{fill:url(#linear-gradient-2);}</style><linearGradient id="linear-gradient" x1="955.56" y1="-10158.57" x2="986.09" y2="-8352.17" gradientTransform="matrix(1, 0, 0, -1, 0, -9342)" gradientUnits="userSpaceOnUse"><stop offset="0" stop-color="#949fb1"/><stop offset="0.01" stop-color="#939daf"/><stop offset="0.12" stop-color="#8d8ca0"/><stop offset="0.26" stop-color="#888195"/><stop offset="0.46" stop-color="#867a8f"/><stop offset="1" stop-color="#85788d"/></linearGradient><linearGradient id="linear-gradient-2" x1="-310" y1="1038.5" x2="1921" y2="1038.5" gradientUnits="userSpaceOnUse"><stop offset="0" stop-color="#949fb1"/><stop offset="0.14" stop-color="#b3bbc8"/></linearGradient></defs><path class="cls-1" d="M1215.75,421.45c-167.7-2.7-305.5-85.8-507.5-99.6-129.9-8.8-267.9,24.7-403.1,21.7-110.3-2.4-210.8-23.8-310.8-15.5v706.6h1926.4V357.85C1479.75,349.25,1388.35,424.25,1215.75,421.45Z"/><g class="cls-2"><path class="cls-3" d="M1216.15,421.25c-167.8-2.7-305.6-85.8-507.6-99.6-130-8.8-268,24.7-403.2,21.7-110.3-2.4-210.8-23.8-310.9-15.5v706.6h1926.8V357.65C1480.25,349,1388.75,424,1216.15,421.25Z"/></g><path class="cls-4" d="M941.35,654.25h.2c-.1,0-.2-.1-.2,0C940.35,654.15,940.35,654.25,941.35,654.25Z"/><path class="cls-4" d="M967.45,637.35h.2c-.1,0-.1-.1-.2,0C966.45,637.25,966.45,637.35,967.45,637.35Z"/><path class="cls-4" d="M1071.15,681c-.1,0-.1.1-.2.1.1,0,.1,0,.2-.1C1071.55,680.55,1071.55,680.45,1071.15,681Z"/><rect class="cls-5" x="-310" y="952" width="2231" height="173"/></svg>