<svg id="Layer_1" data-name="Layer 1" xmlns="http://www.w3.org/2000/svg" viewBox="0 0 1920 1080"><defs><style>.cls-1{fill:#ce310d;}.cls-2{fill:#e44211;}.cls-3{fill:#fff;}.cls-4{fill:#3e563e;}</style></defs><path class="cls-1" d="M406.17,93c-.2.1-.4.1-.6.2.2-.1.5-.2.7-.3A.1.1,0,0,0,406.17,93Z"/><path class="cls-1" d="M349.67,106.74c-.2.1-.4.1-.6.2.2-.1.5-.2.7-.3A.1.1,0,0,0,349.67,106.74Z"/><path class="cls-1" d="M140.47,96.94c.2.1.4.1.6.2-.2-.1-.5-.2-.7-.3Z"/><path class="cls-1" d="M463.07,86c-.2,0-.3.1-.5.1a1.09,1.09,0,0,1,.5-.1Z"/><path class="cls-1" d="M550.87,113.14c.2.1.4.1.6.2-.2-.1-.5-.2-.7-.3Z"/><path class="cls-1" d="M873.47,102.24c-.2,0-.3.1-.5.1a.75.75,0,0,0,.5-.1Z"/><path class="cls-1" d="M643.67,74.94c.2.1.4.1.6.2-.2-.1-.5-.2-.7-.3C643.67,74.84,643.67,74.84,643.67,74.94Z"/><path class="cls-1" d="M966.37,64c-.2,0-.3.1-.5.1a.9.9,0,0,1,.5-.1Z"/><path class="cls-1" d="M332.87,159.84c.2.1.4.1.6.2-.2-.1-.5-.2-.7-.3A.1.1,0,0,0,332.87,159.84Z"/><path class="cls-1" d="M757.87,199.94a4.33,4.33,0,0,1,.5.1.9.9,0,0,1-.5-.1C756.87,200,756.87,199.94,757.87,199.94Z"/><path class="cls-2" d="M947.67,651.94h.2c-.1,0-.2-.1-.2,0C946.67,651.84,946.67,651.94,947.67,651.94Z"/><path class="cls-2" d="M973.77,635h.2c-.1,0-.1-.1-.2,0C972.77,634.94,972.77,635,973.77,635Z"/><path class="cls-1" d="M1864.7,28.3c.2,0,.3.1.5.1a.75.75,0,0,0-.5-.1Z"/><path class="cls-1" d="M1808.2,42c.2,0,.3.1.5.1a.75.75,0,0,0-.5-.1Z"/><path class="cls-1" d="M1917.4,41.7c-.2.1-.4.1-.6.2.2-.1.5-.2.7-.3A.1.1,0,0,1,1917.4,41.7Z"/><path class="cls-1" d="M873.47,102.24c-.2,0-.3.1-.5.1a.75.75,0,0,0,.5-.1Z"/><path class="cls-1" d="M966.37,64c-.2,0-.3.1-.5.1a.9.9,0,0,1,.5-.1Z"/><path class="cls-1" d="M847.77,115c.2,0,.3.1.5.1a.75.75,0,0,0-.5-.1Z"/><path class="cls-1" d="M1818.57,84.64c.2,0,.3.1.5.1a.75.75,0,0,1-.5-.1Z"/><path class="cls-1" d="M1056.37,148.94a4.33,4.33,0,0,0-.5.1,1.09,1.09,0,0,0,.5-.1C1057.27,149,1057.27,148.94,1056.37,148.94Z"/><path class="cls-1" d="M1351.07,137c.2,0,.3.1.5.1a.9.9,0,0,0-.5-.1Z"/><path class="cls-1" d="M1263.37,164.14c-.2.1-.4.1-.6.2.2-.1.5-.2.7-.3A.1.1,0,0,0,1263.37,164.14Z"/><path class="cls-1" d="M940.67,153.24c.2,0,.3.1.5.1a.9.9,0,0,1-.5-.1Z"/><path class="cls-1" d="M1158.67,199.94c.2,0,.3.1.5.1a.9.9,0,0,1-.5-.1C1157.67,200,1157.67,199.94,1158.67,199.94Z"/><path class="cls-1" d="M1170.47,125.94c-.2.1-.4.1-.6.2.2-.1.5-.2.7-.3A.1.1,0,0,0,1170.47,125.94Z"/><path class="cls-1" d="M1080.57,210.84c-.2.1-.4.1-.6.2.2-.1.5-.2.7-.3A.1.1,0,0,0,1080.57,210.84Z"/><path class="cls-2" d="M947.67,651.94h.2c-.1,0-.2-.1-.2,0C946.67,651.84,946.67,651.94,947.67,651.94Z"/><path class="cls-2" d="M973.77,635h.2c-.1,0-.1-.1-.2,0C972.77,634.94,972.77,635,973.77,635Z"/><path class="cls-2" d="M1077.47,678.64c-.1,0-.1.1-.2.1.1,0,.1,0,.2-.1C1077.87,678.24,1077.87,678.14,1077.47,678.64Z"/><path class="cls-1" d="M1870.47,27.14c.2,0,.3.1.5.1a.75.75,0,0,0-.5-.1Z"/><path class="cls-1" d="M1814,40.84c.2,0,.3.1.5.1a.75.75,0,0,0-.5-.1Z"/><path class="cls-2" d="M940.85,652.3h.2c-.1,0-.2-.1-.2,0C939.85,652.2,939.85,652.3,940.85,652.3Z"/><path class="cls-2" d="M967,635.4h.2c-.1,0-.1-.1-.2,0C966,635.3,966,635.4,967,635.4Z"/><path class="cls-2" d="M1070.65,679c-.1,0-.1.1-.2.1.1,0,.1,0,.2-.1C1071.05,678.6,1071.05,678.5,1070.65,679Z"/><path class="cls-3" d="M1215.25,419.5c-167.7-2.7-305.5-85.8-507.5-99.6-129.9-8.8-267.9,24.7-403.1,21.7-110.3-2.4-210.8-23.8-310.8-15.5v706.6h1926.4V355.9C1479.25,347.3,1387.85,422.3,1215.25,419.5Z"/><path class="cls-4" d="M1215.65,419.3c-167.8-2.7-305.6-85.8-507.6-99.6-130-8.8-268,24.7-403.2,21.7C194.55,339,94.05,317.6-6,325.9v706.6h1926.8V355.7C1479.75,347,1388.25,422,1215.65,419.3Z"/><rect class="cls-4" x="-6" y="713" width="1926" height="445"/></svg>