<svg id="Layer_1" data-name="Layer 1" xmlns="http://www.w3.org/2000/svg" viewBox="0 0 1920 1080"><defs><style>.cls-1{fill:#ce310d;}.cls-2{fill:#4a6751;}.cls-3{fill:#e44211;}</style></defs><path class="cls-1" d="M1893.7,28.3c.2,0,.3.1.5.1a.75.75,0,0,0-.5-.1Z"/><path class="cls-1" d="M1837.2,42c.2,0,.3.1.5.1a.75.75,0,0,0-.5-.1Z"/><path class="cls-1" d="M1864.7,28.3c.2,0,.3.1.5.1a.75.75,0,0,0-.5-.1Z"/><path class="cls-1" d="M1808.2,42c.2,0,.3.1.5.1a.75.75,0,0,0-.5-.1Z"/><path class="cls-1" d="M1917.4,41.7c-.2.1-.4.1-.6.2.2-.1.5-.2.7-.3A.1.1,0,0,1,1917.4,41.7Z"/><path class="cls-1" d="M1884.7,28.3c.2,0,.3.1.5.1a.75.75,0,0,0-.5-.1Z"/><path class="cls-1" d="M1828.2,42c.2,0,.3.1.5.1a.75.75,0,0,0-.5-.1Z"/><path class="cls-1" d="M1818.57,84.64c.2,0,.3.1.5.1a.75.75,0,0,1-.5-.1Z"/><path class="cls-2" d="M1537.07,474.34c-159.3-20.1-115.2-61.5-527.8-21.8-142.8,13.7-177.2,34.1-268.8,34.2-171,.3-251-45.1-501.4,39-78.3,26.3-154.3,57.5-235.3,75.5v388.7h1919.3V439.24C1762.47,441.94,1694.67,494.14,1537.07,474.34Z"/><path class="cls-3" d="M947.67,651.94h.2c-.1,0-.2-.1-.2,0C946.67,651.84,946.67,651.94,947.67,651.94Z"/><path class="cls-3" d="M973.77,635h.2c-.1,0-.1-.1-.2,0C972.77,634.94,972.77,635,973.77,635Z"/><path class="cls-3" d="M1077.47,678.64c-.1,0-.1.1-.2.1.1,0,.1,0,.2-.1C1077.87,678.24,1077.87,678.14,1077.47,678.64Z"/><path class="cls-1" d="M1870.47,27.14c.2,0,.3.1.5.1a.75.75,0,0,0-.5-.1Z"/><path class="cls-1" d="M1814,40.84c.2,0,.3.1.5.1a.75.75,0,0,0-.5-.1Z"/><rect class="cls-2" x="4" y="882" width="1923" height="198"/></svg>