<svg id="Layer_1" data-name="Layer 1" xmlns="http://www.w3.org/2000/svg" viewBox="0 0 1920 1080"><defs><style>.cls-1{fill:#e44211;}.cls-2{fill:#233d27;}</style></defs><path class="cls-1" d="M1077.47,678.64c-.1,0-.1.1-.2.1.1,0,.1,0,.2-.1C1077.87,678.24,1077.87,678.14,1077.47,678.64Z"/><path class="cls-1" d="M947.67,651.94h.2c-.1,0-.2-.1-.2,0C946.67,651.84,946.67,651.94,947.67,651.94Z"/><path class="cls-1" d="M973.77,635h.2c-.1,0-.1-.1-.2,0C972.77,634.94,972.77,635,973.77,635Z"/><path class="cls-1" d="M947.67,651.94h.2c-.1,0-.2-.1-.2,0C946.67,651.84,946.67,651.94,947.67,651.94Z"/><path class="cls-1" d="M973.77,635h.2c-.1,0-.1-.1-.2,0C972.77,634.94,972.77,635,973.77,635Z"/><path class="cls-1" d="M1077.47,678.64c-.1,0-.1.1-.2.1.1,0,.1,0,.2-.1C1077.87,678.24,1077.87,678.14,1077.47,678.64Z"/><path class="cls-1" d="M940.85,652.3h.2c-.1,0-.2-.1-.2,0C939.85,652.2,939.85,652.3,940.85,652.3Z"/><path class="cls-1" d="M967,635.4h.2c-.1,0-.1-.1-.2,0C966,635.3,966,635.4,967,635.4Z"/><path class="cls-1" d="M1070.65,679c-.1,0-.1.1-.2.1.1,0,.1,0,.2-.1C1071.05,678.6,1071.05,678.5,1070.65,679Z"/><path class="cls-2" d="M1532.25,474.7c-159.3-20.1-115.2-61.5-527.8-21.8-142.8,13.7-177.2,34.1-268.8,34.2-171,.3-251-45.1-501.4,39C156,552.4,80,583.6-1,601.6V990.3h1919.3V439.6C1757.65,442.3,1689.85,494.5,1532.25,474.7Z"/><rect class="cls-2" x="-25" y="748" width="1952" height="333"/></svg>