<svg id="Layer_1" data-name="Layer 1" xmlns="http://www.w3.org/2000/svg" viewBox="0 0 1920 699"><defs><style>.cls-1{fill:#ce310d;}.cls-2{fill:#fff;}.cls-3{fill:#95e1e5;}.cls-4{fill:#e44211;}.cls-5{fill:none;}</style></defs><path class="cls-1" d="M1864.7,28.3c.2,0,.3.1.5.1a.75.75,0,0,0-.5-.1Z"/><path class="cls-1" d="M1808.2,42c.2,0,.3.1.5.1a.75.75,0,0,0-.5-.1Z"/><path class="cls-1" d="M1917.4,41.7c-.2.1-.4.1-.6.2.2-.1.5-.2.7-.3A.1.1,0,0,1,1917.4,41.7Z"/><circle class="cls-2" cx="1222.47" cy="257.14" r="64.7"/><path class="cls-1" d="M406.17,93c-.2.1-.4.1-.6.2.2-.1.5-.2.7-.3A.1.1,0,0,0,406.17,93Z"/><path class="cls-1" d="M349.67,106.74c-.2.1-.4.1-.6.2.2-.1.5-.2.7-.3A.1.1,0,0,0,349.67,106.74Z"/><path class="cls-1" d="M140.47,96.94c.2.1.4.1.6.2-.2-.1-.5-.2-.7-.3Z"/><path class="cls-1" d="M463.07,86c-.2,0-.3.1-.5.1a1.09,1.09,0,0,1,.5-.1Z"/><path class="cls-1" d="M550.87,113.14c.2.1.4.1.6.2-.2-.1-.5-.2-.7-.3Z"/><path class="cls-1" d="M873.47,102.24c-.2,0-.3.1-.5.1a.75.75,0,0,0,.5-.1Z"/><path class="cls-1" d="M643.67,74.94c.2.1.4.1.6.2-.2-.1-.5-.2-.7-.3C643.67,74.84,643.67,74.84,643.67,74.94Z"/><path class="cls-1" d="M966.37,64c-.2,0-.3.1-.5.1a.9.9,0,0,1,.5-.1Z"/><path class="cls-1" d="M847.77,115c.2,0,.3.1.5.1a.75.75,0,0,0-.5-.1Z"/><path class="cls-1" d="M1818.57,84.64c.2,0,.3.1.5.1a.75.75,0,0,1-.5-.1Z"/><path class="cls-1" d="M332.87,159.84c.2.1.4.1.6.2-.2-.1-.5-.2-.7-.3A.1.1,0,0,0,332.87,159.84Z"/><path class="cls-1" d="M655.57,148.94c-.2,0-.3.1-.5.1a1.09,1.09,0,0,0,.5-.1C656.47,149,656.47,148.94,655.57,148.94Z"/><path class="cls-1" d="M733.67,159.84c.2.1.4.1.6.2-.2-.1-.5-.2-.7-.3A.1.1,0,0,0,733.67,159.84Z"/><path class="cls-1" d="M1056.37,148.94a4.33,4.33,0,0,0-.5.1,1.09,1.09,0,0,0,.5-.1C1057.27,149,1057.27,148.94,1056.37,148.94Z"/><path class="cls-1" d="M1740.17,38.54c-2.4-.7-4.9-1.4-7.3-2.2A41.17,41.17,0,0,1,1740.17,38.54ZM1579.27,151c4.3-2.1,8.5-2.8,12.5-4.9-.3.6-.6,1.3-.9,2A115.66,115.66,0,0,1,1579.27,151Z"/><path class="cls-1" d="M1673.77,147.94c-.2.1-.4.1-.6.2.2-.1.5-.2.7-.3A.1.1,0,0,0,1673.77,147.94Z"/><path class="cls-1" d="M1351.07,137c.2,0,.3.1.5.1a.9.9,0,0,0-.5-.1Z"/><path class="cls-1" d="M1548.87,28c-2.4-.7-4.9-1.4-7.3-2.2A41.17,41.17,0,0,1,1548.87,28ZM1388,140.54c4.3-2.1,8.5-2.8,12.5-4.9-.3.6-.6,1.3-.9,2A115.66,115.66,0,0,1,1388,140.54Z"/><path class="cls-1" d="M1263.37,164.14c-.2.1-.4.1-.6.2.2-.1.5-.2.7-.3A.1.1,0,0,0,1263.37,164.14Z"/><path class="cls-1" d="M940.67,153.24c.2,0,.3.1.5.1a.9.9,0,0,1-.5-.1Z"/><path class="cls-1" d="M1481.37,210.84c-.2.1-.4.1-.6.2.2-.1.5-.2.7-.3A.1.1,0,0,0,1481.37,210.84Z"/><path class="cls-1" d="M1158.67,199.94c.2,0,.3.1.5.1a.9.9,0,0,1-.5-.1C1157.67,200,1157.67,199.94,1158.67,199.94Z"/><path class="cls-1" d="M1170.47,125.94c-.2.1-.4.1-.6.2.2-.1.5-.2.7-.3A.1.1,0,0,0,1170.47,125.94Z"/><path class="cls-1" d="M1080.57,210.84c-.2.1-.4.1-.6.2.2-.1.5-.2.7-.3A.1.1,0,0,0,1080.57,210.84Z"/><path class="cls-1" d="M757.87,199.94a4.33,4.33,0,0,1,.5.1.9.9,0,0,1-.5-.1C756.87,200,756.87,199.94,757.87,199.94Z"/><rect class="cls-3" x="-4.33" y="-0.06" width="1931" height="702"/><path class="cls-4" d="M947.67,651.94h.2c-.1,0-.2-.1-.2,0C946.67,651.84,946.67,651.94,947.67,651.94Z"/><path class="cls-4" d="M973.77,635h.2c-.1,0-.1-.1-.2,0C972.77,634.94,972.77,635,973.77,635Z"/><path class="cls-4" d="M1077.47,678.64c-.1,0-.1.1-.2.1.1,0,.1,0,.2-.1C1077.87,678.24,1077.87,678.14,1077.47,678.64Z"/><path class="cls-1" d="M1870.47,27.14c.2,0,.3.1.5.1a.75.75,0,0,0-.5-.1Z"/><path class="cls-1" d="M1814,40.84c.2,0,.3.1.5.1a.75.75,0,0,0-.5-.1Z"/><rect id="Retângulo_1" data-name="Retângulo 1" class="cls-5" x="0.87" y="0.64" width="1920" height="208"/></svg>