<svg id="Layer_1" data-name="Layer 1" xmlns="http://www.w3.org/2000/svg" xmlns:xlink="http://www.w3.org/1999/xlink" viewBox="0 0 1920 1080"><defs><style>.cls-1{fill:#ce310d;}.cls-2{fill:#fff;}.cls-3{fill:#e44211;}.cls-4{fill:url(#radial-gradient);}</style><radialGradient id="radial-gradient" cx="1222.17" cy="2350.56" r="107.5" gradientTransform="matrix(1, 0, 0, -1, 0, 2608)" gradientUnits="userSpaceOnUse"><stop offset="0" stop-color="#fbf93b"/><stop offset="0.61" stop-color="#fbdb52" stop-opacity="0.96"/><stop offset="0.69" stop-color="#fbe046" stop-opacity="0.79"/><stop offset="0.88" stop-color="#fcea2b" stop-opacity="0.36"/><stop offset="1" stop-color="#fcee21" stop-opacity="0.1"/></radialGradient></defs><path class="cls-1" d="M1864.7,28.3c.2,0,.3.1.5.1a.75.75,0,0,0-.5-.1Z"/><path class="cls-1" d="M1808.2,42c.2,0,.3.1.5.1a.75.75,0,0,0-.5-.1Z"/><path class="cls-1" d="M1917.4,41.7c-.2.1-.4.1-.6.2.2-.1.5-.2.7-.3A.1.1,0,0,1,1917.4,41.7Z"/><circle class="cls-2" cx="1222.47" cy="257.14" r="64.7"/><path class="cls-1" d="M873.47,102.24c-.2,0-.3.1-.5.1a.75.75,0,0,0,.5-.1Z"/><path class="cls-1" d="M966.37,64c-.2,0-.3.1-.5.1a.9.9,0,0,1,.5-.1Z"/><path class="cls-1" d="M847.77,115c.2,0,.3.1.5.1a.75.75,0,0,0-.5-.1Z"/><path class="cls-1" d="M1818.57,84.64c.2,0,.3.1.5.1a.75.75,0,0,1-.5-.1Z"/><path class="cls-1" d="M1056.37,148.94a4.33,4.33,0,0,0-.5.1,1.09,1.09,0,0,0,.5-.1C1057.27,149,1057.27,148.94,1056.37,148.94Z"/><path class="cls-1" d="M1351.07,137c.2,0,.3.1.5.1a.9.9,0,0,0-.5-.1Z"/><path class="cls-1" d="M1263.37,164.14c-.2.1-.4.1-.6.2.2-.1.5-.2.7-.3A.1.1,0,0,0,1263.37,164.14Z"/><path class="cls-1" d="M940.67,153.24c.2,0,.3.1.5.1a.9.9,0,0,1-.5-.1Z"/><path class="cls-1" d="M1158.67,199.94c.2,0,.3.1.5.1a.9.9,0,0,1-.5-.1C1157.67,200,1157.67,199.94,1158.67,199.94Z"/><path class="cls-1" d="M1170.47,125.94c-.2.1-.4.1-.6.2.2-.1.5-.2.7-.3A.1.1,0,0,0,1170.47,125.94Z"/><path class="cls-1" d="M1080.57,210.84c-.2.1-.4.1-.6.2.2-.1.5-.2.7-.3A.1.1,0,0,0,1080.57,210.84Z"/><path class="cls-3" d="M947.67,651.94h.2c-.1,0-.2-.1-.2,0C946.67,651.84,946.67,651.94,947.67,651.94Z"/><path class="cls-3" d="M973.77,635h.2c-.1,0-.1-.1-.2,0C972.77,634.94,972.77,635,973.77,635Z"/><path class="cls-3" d="M1077.47,678.64c-.1,0-.1.1-.2.1.1,0,.1,0,.2-.1C1077.87,678.24,1077.87,678.14,1077.47,678.64Z"/><path class="cls-1" d="M1870.47,27.14c.2,0,.3.1.5.1a.75.75,0,0,0-.5-.1Z"/><path class="cls-1" d="M1814,40.84c.2,0,.3.1.5.1a.75.75,0,0,0-.5-.1Z"/><circle class="cls-4" cx="1222.17" cy="257.44" r="107.5"/></svg>