<svg id="Layer_1" data-name="Layer 1" xmlns="http://www.w3.org/2000/svg" xmlns:xlink="http://www.w3.org/1999/xlink" viewBox="0 0 1920 349"><defs><style>.cls-1{fill:none;}.cls-2{fill:#ce310d;}.cls-3{clip-path:url(#clip-path);}.cls-4{fill:url(#linear-gradient);}</style><clipPath id="clip-path"><rect id="Rectangle_291" data-name="Rectangle 291" class="cls-1" x="-5" width="1932" height="357"/></clipPath><linearGradient id="linear-gradient" x1="960.5" y1="6877.19" x2="960.5" y2="7719.73" gradientTransform="matrix(1, 0, 0, -1, 0, 7384)" gradientUnits="userSpaceOnUse"><stop offset="0.23" stop-color="#e0dab8"/><stop offset="0.26" stop-color="#d4d5bd"/><stop offset="0.33" stop-color="#bfcdc6"/><stop offset="0.4" stop-color="#b0c7cd"/><stop offset="0.49" stop-color="#a8c3d1"/><stop offset="0.63" stop-color="#a5c2d2"/><stop offset="0.68" stop-color="#a5c2d2"/><stop offset="1" stop-color="#a5c2d2"/></linearGradient></defs><path class="cls-2" d="M1864.7,28.3c.2,0,.3.1.5.1a.75.75,0,0,0-.5-.1Z"/><path class="cls-2" d="M1808.2,42c.2,0,.3.1.5.1a.75.75,0,0,0-.5-.1Z"/><path class="cls-2" d="M1917.4,41.7c-.2.1-.4.1-.6.2.2-.1.5-.2.7-.3A.1.1,0,0,1,1917.4,41.7Z"/><g class="cls-3"><rect class="cls-4" x="-5" y="-2" width="1931" height="702"/></g></svg>