<svg id="Layer_1" data-name="Layer 1" xmlns="http://www.w3.org/2000/svg" xmlns:xlink="http://www.w3.org/1999/xlink" viewBox="0 0 1920 699"><defs><style>.cls-1{fill:none;}.cls-2{fill:url(#linear-gradient);}.cls-3{fill:#ce310d;}.cls-4{fill:#e44211;}</style><linearGradient id="linear-gradient" x1="960.4" y1="5080.09" x2="960.4" y2="5922.63" gradientTransform="matrix(1, 0, 0, -1, 0, 5590)" gradientUnits="userSpaceOnUse"><stop offset="0.23" stop-color="#e0dab8"/><stop offset="0.26" stop-color="#d4d5bd"/><stop offset="0.33" stop-color="#bfcdc6"/><stop offset="0.4" stop-color="#b0c7cd"/><stop offset="0.49" stop-color="#a8c3d1"/><stop offset="0.63" stop-color="#a5c2d2"/><stop offset="0.68" stop-color="#a5c2d2"/><stop offset="1" stop-color="#a5c2d2"/></linearGradient></defs><rect class="cls-1" x="-8.1" y="-296.9" width="1926" height="484"/><rect class="cls-2" x="-5.1" y="1.1" width="1931" height="702"/><rect id="Retângulo_1" data-name="Retângulo 1" class="cls-1" x="-4.9" y="1.8" width="1920" height="208"/><path class="cls-3" d="M1864.7,28.3c.2,0,.3.1.5.1a.75.75,0,0,0-.5-.1Z"/><path class="cls-3" d="M1808.2,42c.2,0,.3.1.5.1a.75.75,0,0,0-.5-.1Z"/><path class="cls-3" d="M1917.4,41.7c-.2.1-.4.1-.6.2.2-.1.5-.2.7-.3A.1.1,0,0,1,1917.4,41.7Z"/><path class="cls-4" d="M941.9,653.1h.2c-.1,0-.2-.1-.2,0C940.9,653,940.9,653.1,941.9,653.1Z"/><path class="cls-4" d="M968,636.2h.2c-.1,0-.1-.1-.2,0C967,636.1,967,636.2,968,636.2Z"/><path class="cls-4" d="M1071.7,679.8c-.1,0-.1.1-.2.1.1,0,.1,0,.2-.1C1072.1,679.4,1072.1,679.3,1071.7,679.8Z"/><rect class="cls-1" x="-8.1" y="600.1" width="1926" height="484"/></svg>