<svg id="Layer_1" data-name="Layer 1" xmlns="http://www.w3.org/2000/svg" viewBox="0 0 1920 1080"><defs><style>.cls-1{fill:#7c9a92;}.cls-2{fill:#ce310d;}.cls-3{fill:#e44211;}</style></defs><path class="cls-1" d="M1532.3,475.5c-159.3-20.1-115.2-61.5-527.8-21.8-142.8,13.7-177.2,34.1-268.8,34.2-171,.3-251-45.1-501.4,39C156,553.2,80,584.4-1,602.4V991.1H1918.3V440.4C1757.7,443.1,1689.9,495.3,1532.3,475.5Z"/><path class="cls-2" d="M1864.7,28.3c.2,0,.3.1.5.1a.75.75,0,0,0-.5-.1Z"/><path class="cls-2" d="M1808.2,42c.2,0,.3.1.5.1a.75.75,0,0,0-.5-.1Z"/><path class="cls-2" d="M1917.4,41.7c-.2.1-.4.1-.6.2.2-.1.5-.2.7-.3A.1.1,0,0,1,1917.4,41.7Z"/><path class="cls-3" d="M941.9,653.1h.2c-.1,0-.2-.1-.2,0C940.9,653,940.9,653.1,941.9,653.1Z"/><path class="cls-3" d="M968,636.2h.2c-.1,0-.1-.1-.2,0C967,636.1,967,636.2,968,636.2Z"/><path class="cls-3" d="M1071.7,679.8c-.1,0-.1.1-.2.1.1,0,.1,0,.2-.1C1072.1,679.4,1072.1,679.3,1071.7,679.8Z"/><path class="cls-3" d="M679.5,787.4h.2c-.1-.1-.1-.1-.2,0Z"/><path class="cls-3" d="M271.5,288.4h.2c-.1-.1-.1-.1-.2,0Z"/><rect class="cls-1" x="-16" y="890" width="1985" height="261"/></svg>