<svg id="Layer_1" data-name="Layer 1" xmlns="http://www.w3.org/2000/svg" viewBox="0 0 1920 1080"><defs><style>.cls-1{fill:#fff;}.cls-2{fill:#c7d3bf;}.cls-3{fill:#ce310d;}.cls-4{fill:#e44211;}.cls-5{fill:none;}</style></defs><path class="cls-1" d="M1216.3,420.3c-167.7-2.7-305.5-85.8-507.5-99.6-129.9-8.8-267.9,24.7-403.1,21.7C195.4,340,94.9,318.6-5.1,326.9v706.6H1921.3V356.7C1480.3,348.1,1388.9,423.1,1216.3,420.3Z"/><path class="cls-2" d="M1216.7,420.1c-167.8-2.7-305.6-85.8-507.6-99.6-130-8.8-268,24.7-403.2,21.7C195.6,339.8,95.1,318.4-5,326.7v706.6H1921.8V356.5C1480.8,347.8,1389.3,422.8,1216.7,420.1Z"/><path class="cls-3" d="M1864.7,28.3c.2,0,.3.1.5.1a.75.75,0,0,0-.5-.1Z"/><path class="cls-3" d="M1808.2,42c.2,0,.3.1.5.1a.75.75,0,0,0-.5-.1Z"/><path class="cls-3" d="M1917.4,41.7c-.2.1-.4.1-.6.2.2-.1.5-.2.7-.3A.1.1,0,0,1,1917.4,41.7Z"/><path class="cls-4" d="M941.9,653.1h.2c-.1,0-.2-.1-.2,0C940.9,653,940.9,653.1,941.9,653.1Z"/><path class="cls-4" d="M968,636.2h.2c-.1,0-.1-.1-.2,0C967,636.1,967,636.2,968,636.2Z"/><path class="cls-4" d="M1071.7,679.8c-.1,0-.1.1-.2.1.1,0,.1,0,.2-.1C1072.1,679.4,1072.1,679.3,1071.7,679.8Z"/><path class="cls-4" d="M679.5,787.4h.2c-.1-.1-.1-.1-.2,0Z"/><rect class="cls-5" x="-8.1" y="600.1" width="1926" height="484"/><rect class="cls-2" x="-8" y="766" width="1930" height="345"/></svg>